<svg xmlns="http://www.w3.org/2000/svg" xmlns:xlink="http://www.w3.org/1999/xlink" version="1.1" class="marks" width="1918" height="1352" viewBox="0 0 959 676"><rect width="959" height="676" fill="#ffffff"/><g fill="none" stroke-miterlimit="10" transform="translate(39,97)"><g class="mark-group role-frame root" role="graphics-object" aria-roledescription="group mark container"><g transform="translate(0,0)"><path class="background" aria-hidden="true" d="M0.5,0.5h900v550h-900Z"/><g><g class="mark-group role-axis" aria-hidden="true"><g transform="translate(0.5,0.5)"><path class="background" aria-hidden="true" d="M0,0h0v0h0Z" pointer-events="none"/><g><g class="mark-rule role-axis-grid" pointer-events="none"><line transform="translate(0,550)" x2="900" y2="0" stroke="#a8a8a8" stroke-width="1" stroke-dasharray="2,4" opacity="1"/><line transform="translate(0,471)" x2="900" y2="0" stroke="#a8a8a8" stroke-width="1" stroke-dasharray="2,4" opacity="1"/><line transform="translate(0,393)" x2="900" y2="0" stroke="#a8a8a8" stroke-width="1" stroke-dasharray="2,4" opacity="1"/><line transform="translate(0,314)" x2="900" y2="0" stroke="#a8a8a8" stroke-width="1" stroke-dasharray="2,4" opacity="1"/><line transform="translate(0,236)" x2="900" y2="0" stroke="#a8a8a8" stroke-width="1" stroke-dasharray="2,4" opacity="1"/><line transform="translate(0,157)" x2="900" y2="0" stroke="#a8a8a8" stroke-width="1" stroke-dasharray="2,4" opacity="1"/><line transform="translate(0,79)" x2="900" y2="0" stroke="#a8a8a8" stroke-width="1" stroke-dasharray="2,4" opacity="1"/><line transform="translate(0,0)" x2="900" y2="0" stroke="#a8a8a8" stroke-width="1" stroke-dasharray="2,4" opacity="1"/></g></g><path class="foreground" aria-hidden="true" d="" pointer-events="none" display="none"/></g></g><g class="mark-group role-axis" role="graphics-symbol" aria-roledescription="axis" aria-label="X-axis for a time scale with values from Jan 2005 to Jan 2026"><g transform="translate(0.5,550.5)"><path class="background" aria-hidden="true" d="M0,0h0v0h0Z" pointer-events="none"/><g><g class="mark-rule role-axis-tick" pointer-events="none"><line transform="translate(11,0)" x2="0" y2="5" stroke="#000" stroke-width="1" opacity="1"/><line transform="translate(99,0)" x2="0" y2="5" stroke="#000" stroke-width="1" opacity="1"/><line transform="translate(187,0)" x2="0" y2="5" stroke="#000" stroke-width="1" opacity="1"/><line transform="translate(274,0)" x2="0" y2="5" stroke="#000" stroke-width="1" opacity="1"/><line transform="translate(362,0)" x2="0" y2="5" stroke="#000" stroke-width="1" opacity="1"/><line transform="translate(450,0)" x2="0" y2="5" stroke="#000" stroke-width="1" opacity="1"/><line transform="translate(538,0)" x2="0" y2="5" stroke="#000" stroke-width="1" opacity="1"/><line transform="translate(626,0)" x2="0" y2="5" stroke="#000" stroke-width="1" opacity="1"/><line transform="translate(714,0)" x2="0" y2="5" stroke="#000" stroke-width="1" opacity="1"/><line transform="translate(801,0)" x2="0" y2="5" stroke="#000" stroke-width="1" opacity="1"/><line transform="translate(889,0)" x2="0" y2="5" stroke="#000" stroke-width="1" opacity="1"/></g><g class="mark-text role-axis-label" pointer-events="none"><text text-anchor="middle" transform="translate(11.059169226659543,22)" font-family="sans-serif" font-size="12px" fill="#000" opacity="1">Jan 2006</text><text text-anchor="middle" transform="translate(98.81127287297984,22)" font-family="sans-serif" font-size="12px" fill="#000" opacity="1">Jan 2008</text><text text-anchor="middle" transform="translate(186.68358488045948,22)" font-family="sans-serif" font-size="12px" fill="#000" opacity="1">Jan 2010</text><text text-anchor="middle" transform="translate(274.43568852677976,22)" font-family="sans-serif" font-size="12px" fill="#000" opacity="1">Jan 2012</text><text text-anchor="middle" transform="translate(362.3080005342594,22)" font-family="sans-serif" font-size="12px" fill="#000" opacity="1">Jan 2014</text><text text-anchor="middle" transform="translate(450.06010418057963,22)" font-family="sans-serif" font-size="12px" fill="#000" opacity="1">Jan 2016</text><text text-anchor="middle" transform="translate(537.9324161880594,22)" font-family="sans-serif" font-size="12px" fill="#000" opacity="1">Jan 2018</text><text text-anchor="middle" transform="translate(625.6845198343796,22)" font-family="sans-serif" font-size="12px" fill="#000" opacity="1">Jan 2020</text><text text-anchor="middle" transform="translate(713.5568318418592,22)" font-family="sans-serif" font-size="12px" fill="#000" opacity="1">Jan 2022</text><text text-anchor="middle" transform="translate(801.3089354881796,22)" font-family="sans-serif" font-size="12px" fill="#000" opacity="1">Jan 2024</text><text text-anchor="middle" transform="translate(889.1812474956591,22)" font-family="sans-serif" font-size="12px" fill="#000" opacity="1">Jan 2026</text></g><g class="mark-rule role-axis-domain" pointer-events="none"><line transform="translate(0,0)" x2="900" y2="0" stroke="#000" stroke-width="1.5" opacity="1"/></g></g><path class="foreground" aria-hidden="true" d="" pointer-events="none" display="none"/></g></g><g class="mark-group role-axis" role="graphics-symbol" aria-roledescription="axis" aria-label="Y-axis titled 'Percent' for a linear scale with values from 2.0 to 16.0"><g transform="translate(0.5,0.5)"><path class="background" aria-hidden="true" d="M0,0h0v0h0Z" pointer-events="none"/><g><g class="mark-text role-axis-label" pointer-events="none"><text text-anchor="end" transform="translate(-10,554)" font-family="sans-serif" font-size="12px" fill="#000" opacity="1">2.0</text><text text-anchor="end" transform="translate(-10,475.42857142857144)" font-family="sans-serif" font-size="12px" fill="#000" opacity="1">4.0</text><text text-anchor="end" transform="translate(-10,396.8571428571429)" font-family="sans-serif" font-size="12px" fill="#000" opacity="1">6.0</text><text text-anchor="end" transform="translate(-10,318.2857142857143)" font-family="sans-serif" font-size="12px" fill="#000" opacity="1">8.0</text><text text-anchor="end" transform="translate(-10,239.71428571428572)" font-family="sans-serif" font-size="12px" fill="#000" opacity="1">10.0</text><text text-anchor="end" transform="translate(-10,161.14285714285714)" font-family="sans-serif" font-size="12px" fill="#000" opacity="1">12.0</text><text text-anchor="end" transform="translate(-10,82.5714285714286)" font-family="sans-serif" font-size="12px" fill="#000" opacity="1">14.0</text><text text-anchor="end" transform="translate(-10,4)" font-family="sans-serif" font-size="12px" fill="#000" opacity="1">16.0</text></g><g class="mark-rule role-axis-domain" pointer-events="none"><line transform="translate(0,550)" x2="0" y2="-550" stroke="#000" stroke-width="1.5" opacity="1"/></g><g class="mark-text role-axis-title" pointer-events="none"><text text-anchor="start" transform="translate(-15,-18)" font-family="sans-serif" font-size="13px" font-weight="normal" fill="#000" opacity="1">Percent</text></g></g><path class="foreground" aria-hidden="true" d="" pointer-events="none" display="none"/></g></g><g class="mark-rect role-mark layer_0_marks" role="graphics-object" aria-roledescription="rect mark container"><path aria-label="start: Dec 01, 2007; end: Jun 01, 2009" role="graphics-symbol" aria-roledescription="rect mark" d="M95.0848136770402,0h65.87418191531988v550h-65.87418191531988Z" fill="#e2e2e2"/><path aria-label="start: Feb 01, 2020; end: Apr 01, 2020" role="graphics-symbol" aria-roledescription="rect mark" d="M629.4109790303193,0h7.212501669560538v550h-7.212501669560538Z" fill="#e2e2e2"/></g><g class="mark-line role-mark layer_1_marks" clip-path="url(#clip2)" role="graphics-object" aria-roledescription="line mark container"><path aria-label="date: Jan 2006; rate: 4.7" role="graphics-symbol" aria-roledescription="line mark" d="M11.059,443.929L14.786,440L18.151,443.929L21.878,443.929L25.484,447.857L29.211,447.857L32.817,443.929L36.543,443.929L40.27,451.786L43.876,455.714L47.603,451.786L51.209,455.714L54.935,447.857L58.662,451.786L62.028,455.714L65.754,451.786L69.36,455.714L73.087,447.857L76.693,443.929L80.419,447.857L84.146,443.929L87.752,443.929L91.479,443.929L95.085,432.143L98.811,432.143L102.538,436.071L106.024,428.214L109.75,432.143L113.356,416.429L117.083,408.571L120.689,400.714L124.416,388.929L128.142,388.929L131.748,373.214L135.475,361.429L139.081,341.786L142.808,322.143L146.534,302.5L149.9,286.786L153.626,275L157.233,259.286L160.959,255.357L164.565,255.357L168.292,251.429L172.018,243.571L175.624,235.714L179.351,239.643L182.957,239.643L186.684,243.571L190.41,243.571L193.776,239.643L197.502,239.643L201.109,251.429L204.835,259.286L208.441,259.286L212.168,255.357L215.894,255.357L219.5,259.286L223.227,243.571L226.833,263.214L230.56,271.071L234.286,275L237.652,275L241.378,271.071L244.985,275L248.711,271.071L252.317,275L256.044,275L259.77,275L263.377,282.857L267.103,290.714L270.709,294.643L274.436,302.5L278.162,302.5L281.648,306.429L285.375,306.429L288.981,306.429L292.707,306.429L296.314,306.429L300.04,310.357L303.767,322.143L307.373,322.143L311.099,326.071L314.705,318.214L318.432,314.286L322.158,326.071L325.524,333.929L329.251,330L332.857,333.929L336.583,333.929L340.19,341.786L343.916,345.714L347.643,345.714L351.249,345.714L354.975,357.5L358.582,365.357L362.308,369.286L366.034,365.357L369.4,365.357L373.127,385L376.733,381.071L380.459,388.929L384.066,385L387.792,388.929L391.519,396.786L395.125,404.643L398.851,400.714L402.458,408.571L406.184,404.643L409.911,412.5L413.276,416.429L417.003,416.429L420.609,408.571L424.336,420.357L427.942,424.286L431.668,428.214L435.395,432.143L439.001,432.143L442.727,428.214L446.334,432.143L450.06,440L453.787,436.071L457.273,432.143L460.999,428.214L464.605,440L468.332,436.071L471.938,440L475.664,436.071L479.391,432.143L482.997,436.071L486.724,443.929L490.33,443.929L494.056,443.929L497.783,447.857L501.149,455.714L504.875,455.714L508.481,455.714L512.208,459.643L515.814,459.643L519.541,455.714L523.267,459.643L526.873,463.571L530.6,463.571L534.206,467.5L537.932,471.429L541.659,467.5L545.025,471.429L548.751,471.429L552.357,479.286L556.084,471.429L559.69,479.286L563.417,479.286L567.143,483.214L570.749,479.286L574.476,479.286L578.082,475.357L581.808,471.429L585.535,479.286L588.901,479.286L592.627,483.214L596.233,487.143L599.96,487.143L603.566,483.214L607.293,487.143L611.019,491.071L614.625,487.143L618.352,487.143L621.958,487.143L625.685,487.143L629.411,491.071L632.897,455.714L636.623,47.143L640.23,110L643.956,196.429L647.562,227.857L651.289,298.571L655.015,322.143L658.622,357.5L662.348,365.357L665.954,365.357L669.681,377.143L673.407,385L676.773,388.929L680.5,388.929L684.106,400.714L687.832,396.786L691.438,416.429L695.165,428.214L698.891,443.929L702.498,451.786L706.224,467.5L709.83,475.357L713.557,471.429L717.283,475.357L720.649,483.214L724.376,483.214L727.982,487.143L731.708,487.143L735.315,491.071L739.041,487.143L742.767,491.071L746.374,487.143L750.1,487.143L753.706,491.071L757.433,491.071L761.159,487.143L764.525,491.071L768.252,495L771.858,487.143L775.584,487.143L779.191,491.071L782.917,483.214L786.644,483.214L790.25,475.357L793.976,483.214L797.582,479.286L801.309,483.214L805.035,475.357L808.521,475.357L812.248,475.357L815.854,475.357L819.581,467.5L823.187,463.571L826.913,463.571L830.64,467.5L834.246,467.5L837.972,463.571L841.579,467.5L845.305,471.429L849.032,463.571L852.397,463.571L856.124,463.571L859.73,459.643L863.457,467.5L867.063,459.643L870.789,459.643L874.516,455.714L881.849,451.786L885.455,455.714L889.181,459.643" stroke="#990000" stroke-width="2"/></g><g class="mark-group role-legend" role="graphics-symbol" aria-roledescription="legend" aria-label="Symbol legend for stroke color with 1 value: Total"><g transform="translate(0,-19)"><path class="background" aria-hidden="true" d="M0,0h53v14h-53Z" pointer-events="none"/><g><g class="mark-group role-legend-entry"><g transform="translate(0,0)"><path class="background" aria-hidden="true" d="M0,0h0v0h0Z" pointer-events="none"/><g><g class="mark-group role-scope" role="graphics-object" aria-roledescription="group mark container"><g transform="translate(0,0)"><path class="background" aria-hidden="true" d="M0,0h52.20195007324219v14h-52.20195007324219Z" pointer-events="none" opacity="1"/><g><g class="mark-symbol role-legend-symbol" pointer-events="none"><path transform="translate(7,7)" d="M-5,0L5,0" stroke="#990000" stroke-width="3" opacity="1"/></g><g class="mark-text role-legend-label" pointer-events="none"><text text-anchor="start" transform="translate(18,11)" font-family="sans-serif" font-size="14px" font-weight="bold" fill="#0000aa" opacity="1">Total</text></g></g><path class="foreground" aria-hidden="true" d="" pointer-events="none" display="none"/></g></g></g><path class="foreground" aria-hidden="true" d="" pointer-events="none" display="none"/></g></g></g><path class="foreground" aria-hidden="true" d="" pointer-events="none" display="none"/></g></g><g class="mark-group role-title"><g transform="translate(-33.31596374511719,-92)"><path class="background" aria-hidden="true" d="M0,0h0v0h0Z" pointer-events="none"/><g><g class="mark-text role-title-text" role="graphics-symbol" aria-roledescription="title" aria-label="Title text 'Civilian unemployment rate, seasonally adjusted'" pointer-events="none"><text text-anchor="start" transform="translate(0,16)" font-family="sans-serif" font-size="20px" font-weight="bold" fill="#000" opacity="1">Civilian unemployment rate, seasonally adjusted</text></g><g class="mark-text role-title-subtitle" role="graphics-symbol" aria-roledescription="subtitle" aria-label="Subtitle text 'Click and drag within the chart to zoom in on time periods'" pointer-events="none"><text text-anchor="start" transform="translate(0,41)" font-family="sans-serif" font-size="14px" fill="#000" opacity="1">Click and drag within the chart to zoom in on time periods</text></g></g><path class="foreground" aria-hidden="true" d="" pointer-events="none" display="none"/></g></g></g><path class="foreground" aria-hidden="true" d="" display="none"/></g></g></g><defs><clipPath id="clip2"><rect x="0" y="0" width="900" height="550"/></clipPath></defs></svg>