<svg xmlns="http://www.w3.org/2000/svg" xmlns:xlink="http://www.w3.org/1999/xlink" version="1.1" class="marks" width="1622" height="1060" viewBox="0 0 811 530"><rect width="811" height="530" fill="white"/><g fill="none" stroke-miterlimit="10" transform="translate(54,40)"><g class="mark-group role-frame root" role="graphics-object" aria-roledescription="group mark container"><g transform="translate(0,0)"><path class="background" aria-hidden="true" d="M0.5,0.5h750v450h-750Z" stroke="#a0a0a0" stroke-width="1"/><g><g class="mark-group role-axis" aria-hidden="true"><g transform="translate(0.5,450.5)"><path class="background" aria-hidden="true" d="M0,0h0v0h0Z" pointer-events="none"/><g><g class="mark-rule role-axis-grid" pointer-events="none"><line transform="translate(73,-450)" x2="0" y2="450" stroke="#e0e0e0" stroke-width="1" opacity="1"/><line transform="translate(198,-450)" x2="0" y2="450" stroke="#e0e0e0" stroke-width="1" opacity="1"/><line transform="translate(323,-450)" x2="0" y2="450" stroke="#e0e0e0" stroke-width="1" opacity="1"/><line transform="translate(448,-450)" x2="0" y2="450" stroke="#e0e0e0" stroke-width="1" opacity="1"/><line transform="translate(573,-450)" x2="0" y2="450" stroke="#e0e0e0" stroke-width="1" opacity="1"/><line transform="translate(698,-450)" x2="0" y2="450" stroke="#e0e0e0" stroke-width="1" opacity="1"/></g></g><path class="foreground" aria-hidden="true" d="" pointer-events="none" display="none"/></g></g><g class="mark-group role-axis" aria-hidden="true"><g transform="translate(0.5,0.5)"><path class="background" aria-hidden="true" d="M0,0h0v0h0Z" pointer-events="none"/><g><g class="mark-rule role-axis-grid" pointer-events="none"><line transform="translate(0,403)" x2="750" y2="0" stroke="#e0e0e0" stroke-width="1" opacity="1"/><line transform="translate(0,324)" x2="750" y2="0" stroke="#e0e0e0" stroke-width="1" opacity="1"/><line transform="translate(0,245)" x2="750" y2="0" stroke="#e0e0e0" stroke-width="1" opacity="1"/><line transform="translate(0,166)" x2="750" y2="0" stroke="#e0e0e0" stroke-width="1" opacity="1"/><line transform="translate(0,87)" x2="750" y2="0" stroke="#e0e0e0" stroke-width="1" opacity="1"/><line transform="translate(0,8)" x2="750" y2="0" stroke="#e0e0e0" stroke-width="1" opacity="1"/></g></g><path class="foreground" aria-hidden="true" d="" pointer-events="none" display="none"/></g></g><g class="mark-group role-axis" role="graphics-symbol" aria-roledescription="axis" aria-label="X-axis titled 'Year' for a time scale with values from 2014 to 2020"><g transform="translate(0.5,450.5)"><path class="background" aria-hidden="true" d="M0,0h0v0h0Z" pointer-events="none"/><g><g class="mark-rule role-axis-tick" pointer-events="none"><line transform="translate(73,0)" x2="0" y2="5" stroke="#888" stroke-width="1" opacity="1"/><line transform="translate(198,0)" x2="0" y2="5" stroke="#888" stroke-width="1" opacity="1"/><line transform="translate(323,0)" x2="0" y2="5" stroke="#888" stroke-width="1" opacity="1"/><line transform="translate(448,0)" x2="0" y2="5" stroke="#888" stroke-width="1" opacity="1"/><line transform="translate(573,0)" x2="0" y2="5" stroke="#888" stroke-width="1" opacity="1"/><line transform="translate(698,0)" x2="0" y2="5" stroke="#888" stroke-width="1" opacity="1"/></g><g class="mark-text role-axis-label" pointer-events="none"><text text-anchor="middle" transform="translate(73.22080291970804,15)" font-family="sans-serif" font-size="10px" fill="#000" opacity="1">2015</text><text text-anchor="middle" transform="translate(198.10675182481754,15)" font-family="sans-serif" font-size="10px" fill="#000" opacity="1">2016</text><text text-anchor="middle" transform="translate(323.33485401459853,15)" font-family="sans-serif" font-size="10px" fill="#000" opacity="1">2017</text><text text-anchor="middle" transform="translate(448.22080291970804,15)" font-family="sans-serif" font-size="10px" fill="#000" opacity="1">2018</text><text text-anchor="middle" transform="translate(573.1067518248175,15)" font-family="sans-serif" font-size="10px" fill="#000" opacity="1">2019</text><text text-anchor="middle" transform="translate(697.992700729927,15)" font-family="sans-serif" font-size="10px" fill="#000" opacity="1">2020</text></g><g class="mark-rule role-axis-domain" pointer-events="none"><line transform="translate(0,0)" x2="750" y2="0" stroke="#888" stroke-width="1" opacity="1"/></g><g class="mark-text role-axis-title" pointer-events="none"><text text-anchor="middle" transform="translate(375,32)" font-family="sans-serif" font-size="14px" font-weight="bold" fill="#000" opacity="1">Year</text></g></g><path class="foreground" aria-hidden="true" d="" pointer-events="none" display="none"/></g></g><g class="mark-group role-axis" role="graphics-symbol" aria-roledescription="axis" aria-label="Y-axis titled 'ppm' for a linear scale with values from 392 to 421"><g transform="translate(0.5,0.5)"><path class="background" aria-hidden="true" d="M0,0h0v0h0Z" pointer-events="none"/><g><g class="mark-rule role-axis-tick" pointer-events="none"><line transform="translate(0,403)" x2="-5" y2="0" stroke="#888" stroke-width="1" opacity="1"/><line transform="translate(0,324)" x2="-5" y2="0" stroke="#888" stroke-width="1" opacity="1"/><line transform="translate(0,245)" x2="-5" y2="0" stroke="#888" stroke-width="1" opacity="1"/><line transform="translate(0,166)" x2="-5" y2="0" stroke="#888" stroke-width="1" opacity="1"/><line transform="translate(0,87)" x2="-5" y2="0" stroke="#888" stroke-width="1" opacity="1"/><line transform="translate(0,8)" x2="-5" y2="0" stroke="#888" stroke-width="1" opacity="1"/></g><g class="mark-text role-axis-label" pointer-events="none"><text text-anchor="end" transform="translate(-7,405.63157894736844)" font-family="sans-serif" font-size="10px" fill="#000" opacity="1">395</text><text text-anchor="end" transform="translate(-7,326.6842105263158)" font-family="sans-serif" font-size="10px" fill="#000" opacity="1">400</text><text text-anchor="end" transform="translate(-7,247.73684210526318)" font-family="sans-serif" font-size="10px" fill="#000" opacity="1">405</text><text text-anchor="end" transform="translate(-7,168.78947368421055)" font-family="sans-serif" font-size="10px" fill="#000" opacity="1">410</text><text text-anchor="end" transform="translate(-7,89.84210526315792)" font-family="sans-serif" font-size="10px" fill="#000" opacity="1">415</text><text text-anchor="end" transform="translate(-7,10.894736842105289)" font-family="sans-serif" font-size="10px" fill="#000" opacity="1">420</text></g><g class="mark-rule role-axis-domain" pointer-events="none"><line transform="translate(0,450)" x2="0" y2="-450" stroke="#888" stroke-width="1" opacity="1"/></g><g class="mark-text role-axis-title" pointer-events="none"><text text-anchor="middle" transform="translate(-27.64996337890625,225) rotate(-90) translate(0,-3)" font-family="sans-serif" font-size="14px" font-weight="bold" fill="#000" opacity="1">ppm</text></g></g><path class="foreground" aria-hidden="true" d="" pointer-events="none" display="none"/></g></g><g class="mark-rule role-mark layer_0_marks" role="graphics-object" aria-roledescription="rule mark container"><line aria-label="y_val: 400" role="graphics-symbol" aria-roledescription="rule mark" transform="translate(750,323.6842105263158)" x2="-750" y2="0" stroke="#666666" stroke-width="1.5" stroke-dasharray="3,3"/></g><g class="mark-line role-mark layer_1_marks" role="graphics-object" aria-roledescription="line mark container"><path aria-label="date: 2014; WDCGG CO2 (ppm): 398.81" role="graphics-symbol" aria-roledescription="line mark" d="M-46.875,342.474L-36.268,335.842L-26.688,330.158L-16.081,331.895L-5.817,339.316L4.79,359.526L15.055,384.789L25.661,399.316L36.268,389.053L46.533,362.211L57.14,334.895L67.404,319.263L78.011,308.842L88.618,300.632L98.198,297.474L108.805,297.632L119.069,306L129.676,325.105L139.941,347.684L150.547,360.789L161.154,352.737L171.419,319.263L182.026,293.211L192.29,276L202.897,261.947L213.504,255.789L223.426,247.421L234.033,245.842L244.297,251.368L254.904,271.421L265.169,296.053L275.776,308.684L286.382,295.579L296.647,268.105L307.254,243.474L317.518,228L328.125,219L338.732,211.263L348.312,207.316L358.919,208.105L369.183,215.526L379.79,235.737L390.055,260.684L400.661,276.632L411.268,269.526L421.533,240.632L432.14,213.474L442.404,196.737L453.011,185.526L463.618,175.579L473.198,172.895L483.805,172.737L494.069,184.895L504.676,201L514.941,226.421L525.547,238.895L536.154,232.737L546.419,203.368L557.026,172.421L567.29,157.579L577.897,146.684" stroke="#222222" stroke-width="1.5"/></g><g class="mark-line role-mark layer_2_marks" role="graphics-object" aria-roledescription="line mark container"><path aria-label="date: 2016; WDCGG CO2 (ppm): 403.91" role="graphics-symbol" aria-roledescription="line mark" d="M202.897,261.947L213.504,255.789L223.426,247.421L234.033,245.842L244.297,251.368L254.904,271.421L265.169,296.053L275.776,308.684L286.382,295.579L296.647,268.105L307.254,243.474L317.518,228" stroke="#00bcd4" stroke-width="6" opacity="0.6"/></g><g class="mark-line role-mark layer_3_marks" role="graphics-object" aria-roledescription="line mark container"><path aria-label="date: 2017; WDCGG CO2 (ppm): 406.63" role="graphics-symbol" aria-roledescription="line mark" d="M328.125,219L338.732,211.263L348.312,207.316L358.919,208.105L369.183,215.526L379.79,235.737L390.055,260.684L400.661,276.632L411.268,269.526L421.533,240.632L432.14,213.474L442.404,196.737" stroke="#4ade80" stroke-width="6" opacity="0.6"/></g><g class="mark-line role-mark layer_4_marks" role="graphics-object" aria-roledescription="line mark container"><path aria-label="date: 2018; WDCGG CO2 (ppm): 408.75" role="graphics-symbol" aria-roledescription="line mark" d="M453.011,185.526L463.618,175.579L473.198,172.895L483.805,172.737L494.069,184.895L504.676,201L514.941,226.421L525.547,238.895L536.154,232.737L546.419,203.368L557.026,172.421L567.29,157.579" stroke="#ff6b6b" stroke-width="6" opacity="0.6"/></g><g class="mark-line role-mark layer_5_marks" role="graphics-object" aria-roledescription="line mark container"><path aria-label="date: 2019; WDCGG CO2 (ppm): 411.21" role="graphics-symbol" aria-roledescription="line mark" d="M577.897,146.684L588.504,140.684L598.084,136.421L608.691,133.579L618.955,139.737L629.562,157.263L639.827,183.789L650.433,196.895L661.04,187.579L671.305,158.526L681.911,130.895L692.176,116.526" stroke="#fb923c" stroke-width="6" opacity="0.6"/></g><g class="mark-line role-mark layer_6_marks" role="graphics-object" aria-roledescription="line mark container"><path aria-label="date: 2019; WDCGG CO2 (ppm): 411.21" role="graphics-symbol" aria-roledescription="line mark" d="M577.897,146.684L588.504,140.684L598.084,136.421L608.691,133.579L618.955,139.737L629.562,157.263L639.827,183.789L650.433,196.895L661.04,187.579L671.305,158.526L681.911,130.895L692.176,116.526" stroke="#fb923c" stroke-width="1.5"/></g><g class="mark-group role-legend" role="graphics-symbol" aria-roledescription="legend" aria-label="Symbol legend for stroke color with 5 values: Observed data, 2016 forecast, 2017 forecast, 2018 forecast, 2019 forecast"><g transform="translate(80,25)"><path class="background" aria-hidden="true" d="M0,0h106v78h-106Z" pointer-events="none"/><g><g class="mark-group role-legend-entry"><g transform="translate(0,0)"><path class="background" aria-hidden="true" d="M0,0h0v0h0Z" pointer-events="none"/><g><g class="mark-group role-scope" role="graphics-object" aria-roledescription="group mark container"><g transform="translate(0,0)"><path class="background" aria-hidden="true" d="M0,0h105.39990234375v13.5h-105.39990234375Z" pointer-events="none" opacity="1"/><g><g class="mark-symbol role-legend-symbol" pointer-events="none"><path transform="translate(6.5,6.5)" d="M-5,0L5,0" stroke="#222222" stroke-width="3" opacity="0.6"/></g><g class="mark-text role-legend-label" pointer-events="none"><text text-anchor="start" transform="translate(17,10.5)" font-family="sans-serif" font-size="13px" fill="#000" opacity="1">Observed data</text></g></g><path class="foreground" aria-hidden="true" d="" pointer-events="none" display="none"/></g><g transform="translate(0,16)"><path class="background" aria-hidden="true" d="M0,0h105.39990234375v13.5h-105.39990234375Z" pointer-events="none" opacity="1"/><g><g class="mark-symbol role-legend-symbol" pointer-events="none"><path transform="translate(6.5,6.5)" d="M-5,0L5,0" stroke="#00bcd4" stroke-width="3" opacity="0.6"/></g><g class="mark-text role-legend-label" pointer-events="none"><text text-anchor="start" transform="translate(17,10.5)" font-family="sans-serif" font-size="13px" fill="#000" opacity="1">2016 forecast</text></g></g><path class="foreground" aria-hidden="true" d="" pointer-events="none" display="none"/></g><g transform="translate(0,32)"><path class="background" aria-hidden="true" d="M0,0h105.39990234375v13.5h-105.39990234375Z" pointer-events="none" opacity="1"/><g><g class="mark-symbol role-legend-symbol" pointer-events="none"><path transform="translate(6.5,6.5)" d="M-5,0L5,0" stroke="#4ade80" stroke-width="3" opacity="0.6"/></g><g class="mark-text role-legend-label" pointer-events="none"><text text-anchor="start" transform="translate(17,10.5)" font-family="sans-serif" font-size="13px" fill="#000" opacity="1">2017 forecast</text></g></g><path class="foreground" aria-hidden="true" d="" pointer-events="none" display="none"/></g><g transform="translate(0,48)"><path class="background" aria-hidden="true" d="M0,0h105.39990234375v13.5h-105.39990234375Z" pointer-events="none" opacity="1"/><g><g class="mark-symbol role-legend-symbol" pointer-events="none"><path transform="translate(6.5,6.5)" d="M-5,0L5,0" stroke="#ff6b6b" stroke-width="3" opacity="0.6"/></g><g class="mark-text role-legend-label" pointer-events="none"><text text-anchor="start" transform="translate(17,10.5)" font-family="sans-serif" font-size="13px" fill="#000" opacity="1">2018 forecast</text></g></g><path class="foreground" aria-hidden="true" d="" pointer-events="none" display="none"/></g><g transform="translate(0,64)"><path class="background" aria-hidden="true" d="M0,0h105.39990234375v13.5h-105.39990234375Z" pointer-events="none" opacity="1"/><g><g class="mark-symbol role-legend-symbol" pointer-events="none"><path transform="translate(6.5,6.5)" d="M-5,0L5,0" stroke="#fb923c" stroke-width="3" opacity="0.6"/></g><g class="mark-text role-legend-label" pointer-events="none"><text text-anchor="start" transform="translate(17,10.5)" font-family="sans-serif" font-size="13px" fill="#000" opacity="1">2019 forecast</text></g></g><path class="foreground" aria-hidden="true" d="" pointer-events="none" display="none"/></g></g></g><path class="foreground" aria-hidden="true" d="" pointer-events="none" display="none"/></g></g></g><path class="foreground" aria-hidden="true" d="" pointer-events="none" display="none"/></g></g><g class="mark-group role-title"><g transform="translate(375,-35)"><path class="background" aria-hidden="true" d="M0,0h0v0h0Z" pointer-events="none"/><g><g class="mark-text role-title-text" role="graphics-symbol" aria-roledescription="title" aria-label="Title text 'Atmospheric CO₂ concentration'" pointer-events="none"><text text-anchor="middle" transform="translate(0,16)" font-family="sans-serif" font-size="20px" font-weight="normal" fill="#000" opacity="1">Atmospheric CO₂ concentration</text></g></g><path class="foreground" aria-hidden="true" d="" pointer-events="none" display="none"/></g></g></g><path class="foreground" aria-hidden="true" d="" display="none"/></g></g></g></svg>