<svg xmlns="http://www.w3.org/2000/svg" xmlns:xlink="http://www.w3.org/1999/xlink" version="1.1" class="marks" width="2632" height="1466" viewBox="0 0 1316 733"><rect width="1316" height="733" fill="#ffffff"/><g fill="none" stroke-miterlimit="10" transform="translate(99,128)"><g class="mark-group role-frame root" role="graphics-object" aria-roledescription="group mark container"><g transform="translate(0,0)"><path class="background" aria-hidden="true" d="M0.5,0.5h900v550h-900Z"/><g><g class="mark-group role-axis" aria-hidden="true"><g transform="translate(0.5,0.5)"><path class="background" aria-hidden="true" d="M0,0h0v0h0Z" pointer-events="none"/><g><g class="mark-rule role-axis-grid" pointer-events="none"><line transform="translate(0,550)" x2="900" y2="0" stroke="#d9d9d9" stroke-width="1" stroke-dasharray="4,4" opacity="1"/><line transform="translate(0,474)" x2="900" y2="0" stroke="#d9d9d9" stroke-width="1" stroke-dasharray="4,4" opacity="1"/><line transform="translate(0,397)" x2="900" y2="0" stroke="#d9d9d9" stroke-width="1" stroke-dasharray="4,4" opacity="1"/><line transform="translate(0,321)" x2="900" y2="0" stroke="#d9d9d9" stroke-width="1" stroke-dasharray="4,4" opacity="1"/><line transform="translate(0,244)" x2="900" y2="0" stroke="#d9d9d9" stroke-width="1" stroke-dasharray="4,4" opacity="1"/><line transform="translate(0,168)" x2="900" y2="0" stroke="#d9d9d9" stroke-width="1" stroke-dasharray="4,4" opacity="1"/><line transform="translate(0,92)" x2="900" y2="0" stroke="#d9d9d9" stroke-width="1" stroke-dasharray="4,4" opacity="1"/><line transform="translate(0,15)" x2="900" y2="0" stroke="#d9d9d9" stroke-width="1" stroke-dasharray="4,4" opacity="1"/></g></g><path class="foreground" aria-hidden="true" d="" pointer-events="none" display="none"/></g></g><g class="mark-group role-axis" role="graphics-symbol" aria-roledescription="axis" aria-label="X-axis for a linear scale with values from 1993 to 2023"><g transform="translate(0.5,550.5)"><path class="background" aria-hidden="true" d="M0,0h0v0h0Z" pointer-events="none"/><g><g class="mark-rule role-axis-tick" pointer-events="none"><line transform="translate(0,0)" x2="0" y2="5" stroke="#888888" stroke-width="1" opacity="1"/><line transform="translate(210,0)" x2="0" y2="5" stroke="#888888" stroke-width="1" opacity="1"/><line transform="translate(360,0)" x2="0" y2="5" stroke="#888888" stroke-width="1" opacity="1"/><line transform="translate(510,0)" x2="0" y2="5" stroke="#888888" stroke-width="1" opacity="1"/><line transform="translate(660,0)" x2="0" y2="5" stroke="#888888" stroke-width="1" opacity="1"/><line transform="translate(810,0)" x2="0" y2="5" stroke="#888888" stroke-width="1" opacity="1"/><line transform="translate(900,0)" x2="0" y2="5" stroke="#888888" stroke-width="1" opacity="1"/></g><g class="mark-text role-axis-label" pointer-events="none"><text text-anchor="start" transform="translate(0,22)" font-family="sans-serif" font-size="14px" fill="#666666" opacity="1">1993</text><text text-anchor="middle" transform="translate(210,22)" font-family="sans-serif" font-size="14px" fill="#666666" opacity="1">2000</text><text text-anchor="middle" transform="translate(360,22)" font-family="sans-serif" font-size="14px" fill="#666666" opacity="1">2005</text><text text-anchor="middle" transform="translate(510,22)" font-family="sans-serif" font-size="14px" fill="#666666" opacity="1">2010</text><text text-anchor="middle" transform="translate(660,22)" font-family="sans-serif" font-size="14px" fill="#666666" opacity="1">2015</text><text text-anchor="middle" transform="translate(810,22)" font-family="sans-serif" font-size="14px" fill="#666666" opacity="1">2020</text><text text-anchor="end" transform="translate(900,22)" font-family="sans-serif" font-size="14px" fill="#666666" opacity="1">2023</text></g><g class="mark-rule role-axis-domain" pointer-events="none"><line transform="translate(0,0)" x2="900" y2="0" stroke="#888888" stroke-width="1" opacity="1"/></g></g><path class="foreground" aria-hidden="true" d="" pointer-events="none" display="none"/></g></g><g class="mark-group role-axis" role="graphics-symbol" aria-roledescription="axis" aria-label="Y-axis for a linear scale with values from 0 to 72"><g transform="translate(0.5,0.5)"><path class="background" aria-hidden="true" d="M0,0h0v0h0Z" pointer-events="none"/><g><g class="mark-text role-axis-label" pointer-events="none"><text text-anchor="end" transform="translate(-6,554)" font-family="sans-serif" font-size="14px" fill="#666666" opacity="1">0 t</text><text text-anchor="end" transform="translate(-6,477.61111111111114)" font-family="sans-serif" font-size="14px" fill="#666666" opacity="1">10 million t</text><text text-anchor="end" transform="translate(-6,401.22222222222223)" font-family="sans-serif" font-size="14px" fill="#666666" opacity="1">20 million t</text><text text-anchor="end" transform="translate(-6,324.8333333333333)" font-family="sans-serif" font-size="14px" fill="#666666" opacity="1">30 million t</text><text text-anchor="end" transform="translate(-6,248.44444444444443)" font-family="sans-serif" font-size="14px" fill="#666666" opacity="1">40 million t</text><text text-anchor="end" transform="translate(-6,172.05555555555557)" font-family="sans-serif" font-size="14px" fill="#666666" opacity="1">50 million t</text><text text-anchor="end" transform="translate(-6,95.66666666666664)" font-family="sans-serif" font-size="14px" fill="#666666" opacity="1">60 million t</text><text text-anchor="end" transform="translate(-6,19.277777777777786)" font-family="sans-serif" font-size="14px" fill="#666666" opacity="1">70 million t</text></g></g><path class="foreground" aria-hidden="true" d="" pointer-events="none" display="none"/></g></g><g class="mark-group role-scope layer_0_pathgroup" role="graphics-object" aria-roledescription="group mark container"><g transform="translate(0,0)"><path class="background" aria-hidden="true" d="M0,0h900v550h-900Z"/><g><g class="mark-line role-mark layer_0_marks" role="graphics-object" aria-roledescription="line mark container"><path aria-label="Year: 1993; Production_M: 19.70819; Entity: China" role="graphics-symbol" aria-roledescription="line mark" d="M0,399.451L30,367.938L60,332.915L90,306.345L120,301.119L150,289.946L180,281.396L210,273.696L240,268.291L270,257.313L300,248.795L330,236.561L360,223.746L390,210.162L420,198.045L450,186.988L480,170.351L510,165.603L540,155.81L570,142.656L600,124.606L630,103.774L660,90.643L690,79.414L720,74.884L750,74.808L780,74.54L810,69.926L840,59.897L870,59.897L900,59.897" stroke="#406098" stroke-width="1.5"/></g></g><path class="foreground" aria-hidden="true" d="" display="none"/></g><g transform="translate(0,0)"><path class="background" aria-hidden="true" d="M0,0h900v550h-900Z"/><g><g class="mark-line role-mark layer_0_marks" role="graphics-object" aria-roledescription="line mark container"><path aria-label="Year: 1993; Production_M: 44.15388; Entity: High-income countries" role="graphics-symbol" aria-roledescription="line mark" d="M0,212.713L30,209.519L60,207.845L90,213.397L120,214.227L150,247.106L180,240.665L210,248.218L240,250.38L270,255.479L300,261.869L330,259.01L360,264.779L390,268.54L420,268.569L450,278.709L480,280.353L510,282.669L540,277.414L570,283.456L600,288.987L630,279.522L660,282.433L690,293.639L720,279.515L750,274.649L780,283.487L810,283.792L840,282.585L870,282.585L900,311.323" stroke="#956839" stroke-width="1.5"/></g></g><path class="foreground" aria-hidden="true" d="" display="none"/></g><g transform="translate(0,0)"><path class="background" aria-hidden="true" d="M0,0h900v550h-900Z"/><g><g class="mark-line role-mark layer_0_marks" role="graphics-object" aria-roledescription="line mark container"><path aria-label="Year: 1993; Production_M: 5.93983; Entity: United States" role="graphics-symbol" aria-roledescription="line mark" d="M0,504.626L30,504.726L60,506.93L90,508.792L120,508.583L150,510.628L180,510.057L210,510.473L240,508.561L270,508.473L300,508.101L330,507.471L360,508.697L390,508.962L420,509.562L450,512.944L480,514.072L510,513.265L540,507.444L570,508.559L600,507.795L630,508.704L660,508.246L690,509.147L720,508.185L750,510.194L780,509.583L810,509.583L840,509.583L870,509.583L900,509.583" stroke="#a93318" stroke-width="1.5"/></g></g><path class="foreground" aria-hidden="true" d="" display="none"/></g></g><g class="mark-symbol role-mark layer_1_marks" role="graphics-object" aria-roledescription="symbol mark container"><path aria-label="Year: 1993; Production_M: 19.70819; Entity: China" role="graphics-symbol" aria-roledescription="point" transform="translate(0,399.45132638888884)" d="M2.236,0A2.236,2.236,0,1,1,-2.236,0A2.236,2.236,0,1,1,2.236,0" fill="#406098" stroke-width="2" opacity="1"/><path aria-label="Year: 1994; Production_M: 23.83363; Entity: China" role="graphics-symbol" aria-roledescription="point" transform="translate(30,367.93754861111114)" d="M2.236,0A2.236,2.236,0,1,1,-2.236,0A2.236,2.236,0,1,1,2.236,0" fill="#406098" stroke-width="2" opacity="1"/><path aria-label="Year: 1995; Production_M: 28.41836; Entity: China" role="graphics-symbol" aria-roledescription="point" transform="translate(60,332.9153055555555)" d="M2.236,0A2.236,2.236,0,1,1,-2.236,0A2.236,2.236,0,1,1,2.236,0" fill="#406098" stroke-width="2" opacity="1"/><path aria-label="Year: 1996; Production_M: 31.89668; Entity: China" role="graphics-symbol" aria-roledescription="point" transform="translate(90,306.3448055555555)" d="M2.236,0A2.236,2.236,0,1,1,-2.236,0A2.236,2.236,0,1,1,2.236,0" fill="#406098" stroke-width="2" opacity="1"/><path aria-label="Year: 1997; Production_M: 32.58075; Entity: China" role="graphics-symbol" aria-roledescription="point" transform="translate(120,301.1192708333333)" d="M2.236,0A2.236,2.236,0,1,1,-2.236,0A2.236,2.236,0,1,1,2.236,0" fill="#406098" stroke-width="2" opacity="1"/><path aria-label="Year: 1998; Production_M: 34.04338; Entity: China" role="graphics-symbol" aria-roledescription="point" transform="translate(150,289.9464027777778)" d="M2.236,0A2.236,2.236,0,1,1,-2.236,0A2.236,2.236,0,1,1,2.236,0" fill="#406098" stroke-width="2" opacity="1"/><path aria-label="Year: 1999; Production_M: 35.16272; Entity: China" role="graphics-symbol" aria-roledescription="point" transform="translate(180,281.3958888888889)" d="M2.236,0A2.236,2.236,0,1,1,-2.236,0A2.236,2.236,0,1,1,2.236,0" fill="#406098" stroke-width="2" opacity="1"/><path aria-label="Year: 2000; Production_M: 36.1707; Entity: China" role="graphics-symbol" aria-roledescription="point" transform="translate(210,273.69604166666664)" d="M2.236,0A2.236,2.236,0,1,1,-2.236,0A2.236,2.236,0,1,1,2.236,0" fill="#406098" stroke-width="2" opacity="1"/><path aria-label="Year: 2001; Production_M: 36.87826; Entity: China" role="graphics-symbol" aria-roledescription="point" transform="translate(240,268.2910694444445)" d="M2.236,0A2.236,2.236,0,1,1,-2.236,0A2.236,2.236,0,1,1,2.236,0" fill="#406098" stroke-width="2" opacity="1"/><path aria-label="Year: 2002; Production_M: 38.315428; Entity: China" role="graphics-symbol" aria-roledescription="point" transform="translate(270,257.3127027777778)" d="M2.236,0A2.236,2.236,0,1,1,-2.236,0A2.236,2.236,0,1,1,2.236,0" fill="#406098" stroke-width="2" opacity="1"/><path aria-label="Year: 2003; Production_M: 39.430532; Entity: China" role="graphics-symbol" aria-roledescription="point" transform="translate(300,248.79454722222223)" d="M2.236,0A2.236,2.236,0,1,1,-2.236,0A2.236,2.236,0,1,1,2.236,0" fill="#406098" stroke-width="2" opacity="1"/><path aria-label="Year: 2004; Production_M: 41.032; Entity: China" role="graphics-symbol" aria-roledescription="point" transform="translate(330,236.5611111111111)" d="M2.236,0A2.236,2.236,0,1,1,-2.236,0A2.236,2.236,0,1,1,2.236,0" fill="#406098" stroke-width="2" opacity="1"/><path aria-label="Year: 2005; Production_M: 42.709628; Entity: China" role="graphics-symbol" aria-roledescription="point" transform="translate(360,223.74589722222217)" d="M2.236,0A2.236,2.236,0,1,1,-2.236,0A2.236,2.236,0,1,1,2.236,0" fill="#406098" stroke-width="2" opacity="1"/><path aria-label="Year: 2006; Production_M: 44.48786; Entity: China" role="graphics-symbol" aria-roledescription="point" transform="translate(390,210.1621805555556)" d="M2.236,0A2.236,2.236,0,1,1,-2.236,0A2.236,2.236,0,1,1,2.236,0" fill="#406098" stroke-width="2" opacity="1"/><path aria-label="Year: 2007; Production_M: 46.074172; Entity: China" role="graphics-symbol" aria-roledescription="point" transform="translate(420,198.04451944444446)" d="M2.236,0A2.236,2.236,0,1,1,-2.236,0A2.236,2.236,0,1,1,2.236,0" fill="#406098" stroke-width="2" opacity="1"/><path aria-label="Year: 2008; Production_M: 47.521532; Entity: China" role="graphics-symbol" aria-roledescription="point" transform="translate(450,186.98829722222223)" d="M2.236,0A2.236,2.236,0,1,1,-2.236,0A2.236,2.236,0,1,1,2.236,0" fill="#406098" stroke-width="2" opacity="1"/><path aria-label="Year: 2009; Production_M: 49.699468; Entity: China" role="graphics-symbol" aria-roledescription="point" transform="translate(480,170.3512861111111)" d="M2.236,0A2.236,2.236,0,1,1,-2.236,0A2.236,2.236,0,1,1,2.236,0" fill="#406098" stroke-width="2" opacity="1"/><path aria-label="Year: 2010; Production_M: 50.321; Entity: China" role="graphics-symbol" aria-roledescription="point" transform="translate(510,165.60347222222222)" d="M2.236,0A2.236,2.236,0,1,1,-2.236,0A2.236,2.236,0,1,1,2.236,0" fill="#406098" stroke-width="2" opacity="1"/><path aria-label="Year: 2011; Production_M: 51.603; Entity: China" role="graphics-symbol" aria-roledescription="point" transform="translate(540,155.81041666666664)" d="M2.236,0A2.236,2.236,0,1,1,-2.236,0A2.236,2.236,0,1,1,2.236,0" fill="#406098" stroke-width="2" opacity="1"/><path aria-label="Year: 2012; Production_M: 53.325; Entity: China" role="graphics-symbol" aria-roledescription="point" transform="translate(570,142.65624999999994)" d="M2.236,0A2.236,2.236,0,1,1,-2.236,0A2.236,2.236,0,1,1,2.236,0" fill="#406098" stroke-width="2" opacity="1"/><path aria-label="Year: 2013; Production_M: 55.688; Entity: China" role="graphics-symbol" aria-roledescription="point" transform="translate(600,124.60555555555553)" d="M2.236,0A2.236,2.236,0,1,1,-2.236,0A2.236,2.236,0,1,1,2.236,0" fill="#406098" stroke-width="2" opacity="1"/><path aria-label="Year: 2014; Production_M: 58.415; Entity: China" role="graphics-symbol" aria-roledescription="point" transform="translate(630,103.77430555555553)" d="M2.236,0A2.236,2.236,0,1,1,-2.236,0A2.236,2.236,0,1,1,2.236,0" fill="#406098" stroke-width="2" opacity="1"/><path aria-label="Year: 2015; Production_M: 60.134; Entity: China" role="graphics-symbol" aria-roledescription="point" transform="translate(660,90.64305555555555)" d="M2.236,0A2.236,2.236,0,1,1,-2.236,0A2.236,2.236,0,1,1,2.236,0" fill="#406098" stroke-width="2" opacity="1"/><path aria-label="Year: 2016; Production_M: 61.604; Entity: China" role="graphics-symbol" aria-roledescription="point" transform="translate(690,79.41388888888889)" d="M2.236,0A2.236,2.236,0,1,1,-2.236,0A2.236,2.236,0,1,1,2.236,0" fill="#406098" stroke-width="2" opacity="1"/><path aria-label="Year: 2017; Production_M: 62.197; Entity: China" role="graphics-symbol" aria-roledescription="point" transform="translate(720,74.88402777777779)" d="M2.236,0A2.236,2.236,0,1,1,-2.236,0A2.236,2.236,0,1,1,2.236,0" fill="#406098" stroke-width="2" opacity="1"/><path aria-label="Year: 2018; Production_M: 62.207; Entity: China" role="graphics-symbol" aria-roledescription="point" transform="translate(750,74.80763888888889)" d="M2.236,0A2.236,2.236,0,1,1,-2.236,0A2.236,2.236,0,1,1,2.236,0" fill="#406098" stroke-width="2" opacity="1"/><path aria-label="Year: 2019; Production_M: 62.242; Entity: China" role="graphics-symbol" aria-roledescription="point" transform="translate(780,74.54027777777779)" d="M2.236,0A2.236,2.236,0,1,1,-2.236,0A2.236,2.236,0,1,1,2.236,0" fill="#406098" stroke-width="2" opacity="1"/><path aria-label="Year: 2020; Production_M: 62.846; Entity: China" role="graphics-symbol" aria-roledescription="point" transform="translate(810,69.92638888888891)" d="M2.236,0A2.236,2.236,0,1,1,-2.236,0A2.236,2.236,0,1,1,2.236,0" fill="#406098" stroke-width="2" opacity="1"/><path aria-label="Year: 2021; Production_M: 64.159; Entity: China" role="graphics-symbol" aria-roledescription="point" transform="translate(840,59.89652777777773)" d="M2.236,0A2.236,2.236,0,1,1,-2.236,0A2.236,2.236,0,1,1,2.236,0" fill="#406098" stroke-width="2" opacity="1"/><path aria-label="Year: 2022; Production_M: 64.159; Entity: China" role="graphics-symbol" aria-roledescription="point" transform="translate(870,59.89652777777773)" d="M2.236,0A2.236,2.236,0,1,1,-2.236,0A2.236,2.236,0,1,1,2.236,0" fill="#406098" stroke-width="2" opacity="1"/><path aria-label="Year: 2023; Production_M: 64.159; Entity: China" role="graphics-symbol" aria-roledescription="point" transform="translate(900,59.89652777777773)" d="M2.236,0A2.236,2.236,0,1,1,-2.236,0A2.236,2.236,0,1,1,2.236,0" fill="#406098" stroke-width="2" opacity="1"/><path aria-label="Year: 1993; Production_M: 44.15388; Entity: High-income countries" role="graphics-symbol" aria-roledescription="point" transform="translate(0,212.71341666666663)" d="M2.236,0A2.236,2.236,0,1,1,-2.236,0A2.236,2.236,0,1,1,2.236,0" fill="#956839" stroke-width="2" opacity="1"/><path aria-label="Year: 1994; Production_M: 44.57202; Entity: High-income countries" role="graphics-symbol" aria-roledescription="point" transform="translate(30,209.51929166666665)" d="M2.236,0A2.236,2.236,0,1,1,-2.236,0A2.236,2.236,0,1,1,2.236,0" fill="#956839" stroke-width="2" opacity="1"/><path aria-label="Year: 1995; Production_M: 44.79115; Entity: High-income countries" role="graphics-symbol" aria-roledescription="point" transform="translate(60,207.84538194444443)" d="M2.236,0A2.236,2.236,0,1,1,-2.236,0A2.236,2.236,0,1,1,2.236,0" fill="#956839" stroke-width="2" opacity="1"/><path aria-label="Year: 1996; Production_M: 44.06443; Entity: High-income countries" role="graphics-symbol" aria-roledescription="point" transform="translate(90,213.3967152777778)" d="M2.236,0A2.236,2.236,0,1,1,-2.236,0A2.236,2.236,0,1,1,2.236,0" fill="#956839" stroke-width="2" opacity="1"/><path aria-label="Year: 1997; Production_M: 43.95578; Entity: High-income countries" role="graphics-symbol" aria-roledescription="point" transform="translate(120,214.22668055555562)" d="M2.236,0A2.236,2.236,0,1,1,-2.236,0A2.236,2.236,0,1,1,2.236,0" fill="#956839" stroke-width="2" opacity="1"/><path aria-label="Year: 1998; Production_M: 39.65164; Entity: High-income countries" role="graphics-symbol" aria-roledescription="point" transform="translate(150,247.1055277777778)" d="M2.236,0A2.236,2.236,0,1,1,-2.236,0A2.236,2.236,0,1,1,2.236,0" fill="#956839" stroke-width="2" opacity="1"/><path aria-label="Year: 1999; Production_M: 40.4947; Entity: High-income countries" role="graphics-symbol" aria-roledescription="point" transform="translate(180,240.66548611111108)" d="M2.236,0A2.236,2.236,0,1,1,-2.236,0A2.236,2.236,0,1,1,2.236,0" fill="#956839" stroke-width="2" opacity="1"/><path aria-label="Year: 2000; Production_M: 39.506052; Entity: High-income countries" role="graphics-symbol" aria-roledescription="point" transform="translate(210,248.21765833333336)" d="M2.236,0A2.236,2.236,0,1,1,-2.236,0A2.236,2.236,0,1,1,2.236,0" fill="#956839" stroke-width="2" opacity="1"/><path aria-label="Year: 2001; Production_M: 39.223012; Entity: High-income countries" role="graphics-symbol" aria-roledescription="point" transform="translate(240,250.37976944444446)" d="M2.236,0A2.236,2.236,0,1,1,-2.236,0A2.236,2.236,0,1,1,2.236,0" fill="#956839" stroke-width="2" opacity="1"/><path aria-label="Year: 2002; Production_M: 38.555508; Entity: High-income countries" role="graphics-symbol" aria-roledescription="point" transform="translate(270,255.47875833333333)" d="M2.236,0A2.236,2.236,0,1,1,-2.236,0A2.236,2.236,0,1,1,2.236,0" fill="#956839" stroke-width="2" opacity="1"/><path aria-label="Year: 2003; Production_M: 37.71893; Entity: High-income countries" role="graphics-symbol" aria-roledescription="point" transform="translate(300,261.86928472222223)" d="M2.236,0A2.236,2.236,0,1,1,-2.236,0A2.236,2.236,0,1,1,2.236,0" fill="#956839" stroke-width="2" opacity="1"/><path aria-label="Year: 2004; Production_M: 38.093172; Entity: High-income countries" role="graphics-symbol" aria-roledescription="point" transform="translate(330,259.0104916666666)" d="M2.236,0A2.236,2.236,0,1,1,-2.236,0A2.236,2.236,0,1,1,2.236,0" fill="#956839" stroke-width="2" opacity="1"/><path aria-label="Year: 2005; Production_M: 37.337972; Entity: High-income countries" role="graphics-symbol" aria-roledescription="point" transform="translate(360,264.7793805555556)" d="M2.236,0A2.236,2.236,0,1,1,-2.236,0A2.236,2.236,0,1,1,2.236,0" fill="#956839" stroke-width="2" opacity="1"/><path aria-label="Year: 2006; Production_M: 36.84562; Entity: High-income countries" role="graphics-symbol" aria-roledescription="point" transform="translate(390,268.5404027777778)" d="M2.236,0A2.236,2.236,0,1,1,-2.236,0A2.236,2.236,0,1,1,2.236,0" fill="#956839" stroke-width="2" opacity="1"/><path aria-label="Year: 2007; Production_M: 36.841812; Entity: High-income countries" role="graphics-symbol" aria-roledescription="point" transform="translate(420,268.56949166666664)" d="M2.236,0A2.236,2.236,0,1,1,-2.236,0A2.236,2.236,0,1,1,2.236,0" fill="#956839" stroke-width="2" opacity="1"/><path aria-label="Year: 2008; Production_M: 35.51441; Entity: High-income countries" role="graphics-symbol" aria-roledescription="point" transform="translate(450,278.70936805555556)" d="M2.236,0A2.236,2.236,0,1,1,-2.236,0A2.236,2.236,0,1,1,2.236,0" fill="#956839" stroke-width="2" opacity="1"/><path aria-label="Year: 2009; Production_M: 35.29925; Entity: High-income countries" role="graphics-symbol" aria-roledescription="point" transform="translate(480,280.35295138888887)" d="M2.236,0A2.236,2.236,0,1,1,-2.236,0A2.236,2.236,0,1,1,2.236,0" fill="#956839" stroke-width="2" opacity="1"/><path aria-label="Year: 2010; Production_M: 34.996; Entity: High-income countries" role="graphics-symbol" aria-roledescription="point" transform="translate(510,282.6694444444444)" d="M2.236,0A2.236,2.236,0,1,1,-2.236,0A2.236,2.236,0,1,1,2.236,0" fill="#956839" stroke-width="2" opacity="1"/><path aria-label="Year: 2011; Production_M: 35.684; Entity: High-income countries" role="graphics-symbol" aria-roledescription="point" transform="translate(540,277.41388888888895)" d="M2.236,0A2.236,2.236,0,1,1,-2.236,0A2.236,2.236,0,1,1,2.236,0" fill="#956839" stroke-width="2" opacity="1"/><path aria-label="Year: 2012; Production_M: 34.893; Entity: High-income countries" role="graphics-symbol" aria-roledescription="point" transform="translate(570,283.45624999999995)" d="M2.236,0A2.236,2.236,0,1,1,-2.236,0A2.236,2.236,0,1,1,2.236,0" fill="#956839" stroke-width="2" opacity="1"/><path aria-label="Year: 2013; Production_M: 34.169; Entity: High-income countries" role="graphics-symbol" aria-roledescription="point" transform="translate(600,288.9868055555556)" d="M2.236,0A2.236,2.236,0,1,1,-2.236,0A2.236,2.236,0,1,1,2.236,0" fill="#956839" stroke-width="2" opacity="1"/><path aria-label="Year: 2014; Production_M: 35.408; Entity: High-income countries" role="graphics-symbol" aria-roledescription="point" transform="translate(630,279.5222222222222)" d="M2.236,0A2.236,2.236,0,1,1,-2.236,0A2.236,2.236,0,1,1,2.236,0" fill="#956839" stroke-width="2" opacity="1"/><path aria-label="Year: 2015; Production_M: 35.027; Entity: High-income countries" role="graphics-symbol" aria-roledescription="point" transform="translate(660,282.43263888888885)" d="M2.236,0A2.236,2.236,0,1,1,-2.236,0A2.236,2.236,0,1,1,2.236,0" fill="#956839" stroke-width="2" opacity="1"/><path aria-label="Year: 2016; Production_M: 33.56; Entity: High-income countries" role="graphics-symbol" aria-roledescription="point" transform="translate(690,293.63888888888886)" d="M2.236,0A2.236,2.236,0,1,1,-2.236,0A2.236,2.236,0,1,1,2.236,0" fill="#956839" stroke-width="2" opacity="1"/><path aria-label="Year: 2017; Production_M: 35.409; Entity: High-income countries" role="graphics-symbol" aria-roledescription="point" transform="translate(720,279.51458333333335)" d="M2.236,0A2.236,2.236,0,1,1,-2.236,0A2.236,2.236,0,1,1,2.236,0" fill="#956839" stroke-width="2" opacity="1"/><path aria-label="Year: 2018; Production_M: 36.046; Entity: High-income countries" role="graphics-symbol" aria-roledescription="point" transform="translate(750,274.6486111111111)" d="M2.236,0A2.236,2.236,0,1,1,-2.236,0A2.236,2.236,0,1,1,2.236,0" fill="#956839" stroke-width="2" opacity="1"/><path aria-label="Year: 2019; Production_M: 34.889; Entity: High-income countries" role="graphics-symbol" aria-roledescription="point" transform="translate(780,283.4868055555555)" d="M2.236,0A2.236,2.236,0,1,1,-2.236,0A2.236,2.236,0,1,1,2.236,0" fill="#956839" stroke-width="2" opacity="1"/><path aria-label="Year: 2020; Production_M: 34.849; Entity: High-income countries" role="graphics-symbol" aria-roledescription="point" transform="translate(810,283.7923611111111)" d="M2.236,0A2.236,2.236,0,1,1,-2.236,0A2.236,2.236,0,1,1,2.236,0" fill="#956839" stroke-width="2" opacity="1"/><path aria-label="Year: 2021; Production_M: 35.007; Entity: High-income countries" role="graphics-symbol" aria-roledescription="point" transform="translate(840,282.5854166666667)" d="M2.236,0A2.236,2.236,0,1,1,-2.236,0A2.236,2.236,0,1,1,2.236,0" fill="#956839" stroke-width="2" opacity="1"/><path aria-label="Year: 2022; Production_M: 35.007; Entity: High-income countries" role="graphics-symbol" aria-roledescription="point" transform="translate(870,282.5854166666667)" d="M2.236,0A2.236,2.236,0,1,1,-2.236,0A2.236,2.236,0,1,1,2.236,0" fill="#956839" stroke-width="2" opacity="1"/><path aria-label="Year: 2023; Production_M: 31.245; Entity: High-income countries" role="graphics-symbol" aria-roledescription="point" transform="translate(900,311.3229166666667)" d="M2.236,0A2.236,2.236,0,1,1,-2.236,0A2.236,2.236,0,1,1,2.236,0" fill="#956839" stroke-width="2" opacity="1"/><path aria-label="Year: 1993; Production_M: 5.93983; Entity: United States" role="graphics-symbol" aria-roledescription="point" transform="translate(0,504.62629861111105)" d="M2.236,0A2.236,2.236,0,1,1,-2.236,0A2.236,2.236,0,1,1,2.236,0" fill="#a93318" stroke-width="2" opacity="1"/><path aria-label="Year: 1994; Production_M: 5.92674; Entity: United States" role="graphics-symbol" aria-roledescription="point" transform="translate(30,504.72629166666667)" d="M2.236,0A2.236,2.236,0,1,1,-2.236,0A2.236,2.236,0,1,1,2.236,0" fill="#a93318" stroke-width="2" opacity="1"/><path aria-label="Year: 1995; Production_M: 5.63831; Entity: United States" role="graphics-symbol" aria-roledescription="point" transform="translate(60,506.9295763888889)" d="M2.236,0A2.236,2.236,0,1,1,-2.236,0A2.236,2.236,0,1,1,2.236,0" fill="#a93318" stroke-width="2" opacity="1"/><path aria-label="Year: 1996; Production_M: 5.39454; Entity: United States" role="graphics-symbol" aria-roledescription="point" transform="translate(90,508.7917083333333)" d="M2.236,0A2.236,2.236,0,1,1,-2.236,0A2.236,2.236,0,1,1,2.236,0" fill="#a93318" stroke-width="2" opacity="1"/><path aria-label="Year: 1997; Production_M: 5.4218; Entity: United States" role="graphics-symbol" aria-roledescription="point" transform="translate(120,508.58347222222227)" d="M2.236,0A2.236,2.236,0,1,1,-2.236,0A2.236,2.236,0,1,1,2.236,0" fill="#a93318" stroke-width="2" opacity="1"/><path aria-label="Year: 1998; Production_M: 5.1541; Entity: United States" role="graphics-symbol" aria-roledescription="point" transform="translate(150,510.62840277777775)" d="M2.236,0A2.236,2.236,0,1,1,-2.236,0A2.236,2.236,0,1,1,2.236,0" fill="#a93318" stroke-width="2" opacity="1"/><path aria-label="Year: 1999; Production_M: 5.22886; Entity: United States" role="graphics-symbol" aria-roledescription="point" transform="translate(180,510.05731944444443)" d="M2.236,0A2.236,2.236,0,1,1,-2.236,0A2.236,2.236,0,1,1,2.236,0" fill="#a93318" stroke-width="2" opacity="1"/><path aria-label="Year: 2000; Production_M: 5.17447; Entity: United States" role="graphics-symbol" aria-roledescription="point" transform="translate(210,510.4727986111111)" d="M2.236,0A2.236,2.236,0,1,1,-2.236,0A2.236,2.236,0,1,1,2.236,0" fill="#a93318" stroke-width="2" opacity="1"/><path aria-label="Year: 2001; Production_M: 5.4247; Entity: United States" role="graphics-symbol" aria-roledescription="point" transform="translate(240,508.56131944444445)" d="M2.236,0A2.236,2.236,0,1,1,-2.236,0A2.236,2.236,0,1,1,2.236,0" fill="#a93318" stroke-width="2" opacity="1"/><path aria-label="Year: 2002; Production_M: 5.4362; Entity: United States" role="graphics-symbol" aria-roledescription="point" transform="translate(270,508.4734722222222)" d="M2.236,0A2.236,2.236,0,1,1,-2.236,0A2.236,2.236,0,1,1,2.236,0" fill="#a93318" stroke-width="2" opacity="1"/><path aria-label="Year: 2003; Production_M: 5.48492; Entity: United States" role="graphics-symbol" aria-roledescription="point" transform="translate(300,508.10130555555554)" d="M2.236,0A2.236,2.236,0,1,1,-2.236,0A2.236,2.236,0,1,1,2.236,0" fill="#a93318" stroke-width="2" opacity="1"/><path aria-label="Year: 2004; Production_M: 5.5674; Entity: United States" role="graphics-symbol" aria-roledescription="point" transform="translate(330,507.47125)" d="M2.236,0A2.236,2.236,0,1,1,-2.236,0A2.236,2.236,0,1,1,2.236,0" fill="#a93318" stroke-width="2" opacity="1"/><path aria-label="Year: 2005; Production_M: 5.40689; Entity: United States" role="graphics-symbol" aria-roledescription="point" transform="translate(360,508.69736805555556)" d="M2.236,0A2.236,2.236,0,1,1,-2.236,0A2.236,2.236,0,1,1,2.236,0" fill="#a93318" stroke-width="2" opacity="1"/><path aria-label="Year: 2006; Production_M: 5.37225; Entity: United States" role="graphics-symbol" aria-roledescription="point" transform="translate(390,508.96197916666665)" d="M2.236,0A2.236,2.236,0,1,1,-2.236,0A2.236,2.236,0,1,1,2.236,0" fill="#a93318" stroke-width="2" opacity="1"/><path aria-label="Year: 2007; Production_M: 5.29364; Entity: United States" role="graphics-symbol" aria-roledescription="point" transform="translate(420,509.5624722222222)" d="M2.236,0A2.236,2.236,0,1,1,-2.236,0A2.236,2.236,0,1,1,2.236,0" fill="#a93318" stroke-width="2" opacity="1"/><path aria-label="Year: 2008; Production_M: 4.85098; Entity: United States" role="graphics-symbol" aria-roledescription="point" transform="translate(450,512.9439027777778)" d="M2.236,0A2.236,2.236,0,1,1,-2.236,0A2.236,2.236,0,1,1,2.236,0" fill="#a93318" stroke-width="2" opacity="1"/><path aria-label="Year: 2009; Production_M: 4.70328; Entity: United States" role="graphics-symbol" aria-roledescription="point" transform="translate(480,514.0721666666666)" d="M2.236,0A2.236,2.236,0,1,1,-2.236,0A2.236,2.236,0,1,1,2.236,0" fill="#a93318" stroke-width="2" opacity="1"/><path aria-label="Year: 2010; Production_M: 4.809; Entity: United States" role="graphics-symbol" aria-roledescription="point" transform="translate(510,513.2645833333333)" d="M2.236,0A2.236,2.236,0,1,1,-2.236,0A2.236,2.236,0,1,1,2.236,0" fill="#a93318" stroke-width="2" opacity="1"/><path aria-label="Year: 2011; Production_M: 5.571; Entity: United States" role="graphics-symbol" aria-roledescription="point" transform="translate(540,507.44375)" d="M2.236,0A2.236,2.236,0,1,1,-2.236,0A2.236,2.236,0,1,1,2.236,0" fill="#a93318" stroke-width="2" opacity="1"/><path aria-label="Year: 2012; Production_M: 5.425; Entity: United States" role="graphics-symbol" aria-roledescription="point" transform="translate(570,508.55902777777777)" d="M2.236,0A2.236,2.236,0,1,1,-2.236,0A2.236,2.236,0,1,1,2.236,0" fill="#a93318" stroke-width="2" opacity="1"/><path aria-label="Year: 2013; Production_M: 5.525; Entity: United States" role="graphics-symbol" aria-roledescription="point" transform="translate(600,507.7951388888889)" d="M2.236,0A2.236,2.236,0,1,1,-2.236,0A2.236,2.236,0,1,1,2.236,0" fill="#a93318" stroke-width="2" opacity="1"/><path aria-label="Year: 2014; Production_M: 5.406; Entity: United States" role="graphics-symbol" aria-roledescription="point" transform="translate(630,508.70416666666665)" d="M2.236,0A2.236,2.236,0,1,1,-2.236,0A2.236,2.236,0,1,1,2.236,0" fill="#a93318" stroke-width="2" opacity="1"/><path aria-label="Year: 2015; Production_M: 5.466; Entity: United States" role="graphics-symbol" aria-roledescription="point" transform="translate(660,508.24583333333334)" d="M2.236,0A2.236,2.236,0,1,1,-2.236,0A2.236,2.236,0,1,1,2.236,0" fill="#a93318" stroke-width="2" opacity="1"/><path aria-label="Year: 2016; Production_M: 5.348; Entity: United States" role="graphics-symbol" aria-roledescription="point" transform="translate(690,509.14722222222224)" d="M2.236,0A2.236,2.236,0,1,1,-2.236,0A2.236,2.236,0,1,1,2.236,0" fill="#a93318" stroke-width="2" opacity="1"/><path aria-label="Year: 2017; Production_M: 5.474; Entity: United States" role="graphics-symbol" aria-roledescription="point" transform="translate(720,508.1847222222222)" d="M2.236,0A2.236,2.236,0,1,1,-2.236,0A2.236,2.236,0,1,1,2.236,0" fill="#a93318" stroke-width="2" opacity="1"/><path aria-label="Year: 2018; Production_M: 5.211; Entity: United States" role="graphics-symbol" aria-roledescription="point" transform="translate(750,510.19375)" d="M2.236,0A2.236,2.236,0,1,1,-2.236,0A2.236,2.236,0,1,1,2.236,0" fill="#a93318" stroke-width="2" opacity="1"/><path aria-label="Year: 2019; Production_M: 5.291; Entity: United States" role="graphics-symbol" aria-roledescription="point" transform="translate(780,509.5826388888889)" d="M2.236,0A2.236,2.236,0,1,1,-2.236,0A2.236,2.236,0,1,1,2.236,0" fill="#a93318" stroke-width="2" opacity="1"/><path aria-label="Year: 2020; Production_M: 5.291; Entity: United States" role="graphics-symbol" aria-roledescription="point" transform="translate(810,509.5826388888889)" d="M2.236,0A2.236,2.236,0,1,1,-2.236,0A2.236,2.236,0,1,1,2.236,0" fill="#a93318" stroke-width="2" opacity="1"/><path aria-label="Year: 2021; Production_M: 5.291; Entity: United States" role="graphics-symbol" aria-roledescription="point" transform="translate(840,509.5826388888889)" d="M2.236,0A2.236,2.236,0,1,1,-2.236,0A2.236,2.236,0,1,1,2.236,0" fill="#a93318" stroke-width="2" opacity="1"/><path aria-label="Year: 2022; Production_M: 5.291; Entity: United States" role="graphics-symbol" aria-roledescription="point" transform="translate(870,509.5826388888889)" d="M2.236,0A2.236,2.236,0,1,1,-2.236,0A2.236,2.236,0,1,1,2.236,0" fill="#a93318" stroke-width="2" opacity="1"/><path aria-label="Year: 2023; Production_M: 5.291; Entity: United States" role="graphics-symbol" aria-roledescription="point" transform="translate(900,509.5826388888889)" d="M2.236,0A2.236,2.236,0,1,1,-2.236,0A2.236,2.236,0,1,1,2.236,0" fill="#a93318" stroke-width="2" opacity="1"/></g><g class="mark-text role-mark layer_2_marks" role="graphics-object" aria-roledescription="text mark container"><text aria-label="Year: 2023; Production_M: 64.159; Entity: China" role="graphics-symbol" aria-roledescription="text mark" text-anchor="start" transform="translate(908,64.89652777777772)" font-family="sans-serif" font-size="15px" fill="#406098">China</text><text aria-label="Year: 2023; Production_M: 31.245; Entity: High-income countries" role="graphics-symbol" aria-roledescription="text mark" text-anchor="start" transform="translate(908,316.3229166666667)" font-family="sans-serif" font-size="15px" fill="#956839">High-income countries</text><text aria-label="Year: 2023; Production_M: 5.291; Entity: United States" role="graphics-symbol" aria-roledescription="text mark" text-anchor="start" transform="translate(908,514.5826388888888)" font-family="sans-serif" font-size="15px" fill="#a93318">United States</text></g><g class="mark-group role-title"><g transform="translate(-78.77188110351562,-88)"><path class="background" aria-hidden="true" d="M0,0h0v0h0Z" pointer-events="none"/><g><g class="mark-text role-title-text" role="graphics-symbol" aria-roledescription="title" aria-label="Title text 'Fish and seafood production'" pointer-events="none"><text text-anchor="start" transform="translate(0,22)" font-family="Georgia, serif" font-size="28px" font-weight="bold" fill="#333333" opacity="1">Fish and seafood production</text></g><g class="mark-text role-title-subtitle" role="graphics-symbol" aria-roledescription="subtitle" aria-label="Subtitle text 'Fish and seafood production is measured as the sum of seafood from wild catch and fish farming (aquaculture).'" pointer-events="none"><text text-anchor="start" transform="translate(0,55)" font-family="sans-serif" font-size="15px" fill="#666666" opacity="1">Fish and seafood production is measured as the sum of seafood from wild catch and fish farming (aquaculture).</text></g></g><path class="foreground" aria-hidden="true" d="" pointer-events="none" display="none"/></g></g></g><path class="foreground" aria-hidden="true" d="" display="none"/></g></g></g></svg>