<svg xmlns="http://www.w3.org/2000/svg" xmlns:xlink="http://www.w3.org/1999/xlink" version="1.1" class="marks" width="2186" height="1050" viewBox="0 0 1093 525"><rect width="1093" height="525" fill="#f0f4f8"/><g fill="none" stroke-miterlimit="10" transform="translate(123,114)"><g class="mark-group role-frame root" role="graphics-object" aria-roledescription="group mark container"><g transform="translate(0,0)"><path class="background" aria-hidden="true" d="M0.5,0.5h950v280h-950Z" fill="#ffffff" stroke="#999999" stroke-width="1"/><g><g class="mark-group role-axis" aria-hidden="true"><g transform="translate(0.5,0.5)"><path class="background" aria-hidden="true" d="M0,0h0v0h0Z" pointer-events="none"/><g><g class="mark-rule role-axis-grid" pointer-events="none"><line transform="translate(0,280)" x2="950" y2="0" stroke="#aaaaaa" stroke-width="1" opacity="1"/><line transform="translate(0,255)" x2="950" y2="0" stroke="#aaaaaa" stroke-width="1" opacity="1"/><line transform="translate(0,229)" x2="950" y2="0" stroke="#aaaaaa" stroke-width="1" opacity="1"/><line transform="translate(0,204)" x2="950" y2="0" stroke="#aaaaaa" stroke-width="1" opacity="1"/><line transform="translate(0,178)" x2="950" y2="0" stroke="#aaaaaa" stroke-width="1" opacity="1"/><line transform="translate(0,153)" x2="950" y2="0" stroke="#aaaaaa" stroke-width="1" opacity="1"/><line transform="translate(0,127)" x2="950" y2="0" stroke="#aaaaaa" stroke-width="1" opacity="1"/><line transform="translate(0,102)" x2="950" y2="0" stroke="#aaaaaa" stroke-width="1" opacity="1"/><line transform="translate(0,76)" x2="950" y2="0" stroke="#aaaaaa" stroke-width="1" opacity="1"/><line transform="translate(0,51)" x2="950" y2="0" stroke="#aaaaaa" stroke-width="1" opacity="1"/><line transform="translate(0,25)" x2="950" y2="0" stroke="#aaaaaa" stroke-width="1" opacity="1"/><line transform="translate(0,0)" x2="950" y2="0" stroke="#aaaaaa" stroke-width="1" opacity="1"/></g></g><path class="foreground" aria-hidden="true" d="" pointer-events="none" display="none"/></g></g><g class="mark-group role-axis" role="graphics-symbol" aria-roledescription="axis" aria-label="X-axis for a time scale with values from 1967 to 2026"><g transform="translate(0.5,280.5)"><path class="background" aria-hidden="true" d="M0,0h0v0h0Z" pointer-events="none"/><g><g class="mark-rule role-axis-tick" pointer-events="none"><line transform="translate(42,0)" x2="0" y2="5" stroke="#666666" stroke-width="1" opacity="1"/><line transform="translate(123,0)" x2="0" y2="5" stroke="#666666" stroke-width="1" opacity="1"/><line transform="translate(204,0)" x2="0" y2="5" stroke="#666666" stroke-width="1" opacity="1"/><line transform="translate(285,0)" x2="0" y2="5" stroke="#666666" stroke-width="1" opacity="1"/><line transform="translate(366,0)" x2="0" y2="5" stroke="#666666" stroke-width="1" opacity="1"/><line transform="translate(447,0)" x2="0" y2="5" stroke="#666666" stroke-width="1" opacity="1"/><line transform="translate(528,0)" x2="0" y2="5" stroke="#666666" stroke-width="1" opacity="1"/><line transform="translate(609,0)" x2="0" y2="5" stroke="#666666" stroke-width="1" opacity="1"/><line transform="translate(691,0)" x2="0" y2="5" stroke="#666666" stroke-width="1" opacity="1"/><line transform="translate(772,0)" x2="0" y2="5" stroke="#666666" stroke-width="1" opacity="1"/><line transform="translate(853,0)" x2="0" y2="5" stroke="#666666" stroke-width="1" opacity="1"/><line transform="translate(934,0)" x2="0" y2="5" stroke="#666666" stroke-width="1" opacity="1"/></g><g class="mark-text role-axis-label" pointer-events="none"><text text-anchor="middle" transform="translate(41.952894995093224,20)" font-family="sans-serif" font-size="12px" fill="#333333" opacity="1">1970</text><text text-anchor="middle" transform="translate(123.01743072106174,20)" font-family="sans-serif" font-size="12px" fill="#333333" opacity="1">1975</text><text text-anchor="middle" transform="translate(204.08196644703025,20)" font-family="sans-serif" font-size="12px" fill="#333333" opacity="1">1980</text><text text-anchor="middle" transform="translate(285.19089677087715,20)" font-family="sans-serif" font-size="12px" fill="#333333" opacity="1">1985</text><text text-anchor="middle" transform="translate(366.25543249684563,20)" font-family="sans-serif" font-size="12px" fill="#333333" opacity="1">1990</text><text text-anchor="middle" transform="translate(447.3199682228141,20)" font-family="sans-serif" font-size="12px" fill="#333333" opacity="1">1995</text><text text-anchor="middle" transform="translate(528.3845039487826,20)" font-family="sans-serif" font-size="12px" fill="#333333" opacity="1">2000</text><text text-anchor="middle" transform="translate(609.4934342726295,20)" font-family="sans-serif" font-size="12px" fill="#333333" opacity="1">2005</text><text text-anchor="middle" transform="translate(690.5579699985981,20)" font-family="sans-serif" font-size="12px" fill="#333333" opacity="1">2010</text><text text-anchor="middle" transform="translate(771.6225057245665,20)" font-family="sans-serif" font-size="12px" fill="#333333" opacity="1">2015</text><text text-anchor="middle" transform="translate(852.687041450535,20)" font-family="sans-serif" font-size="12px" fill="#333333" opacity="1">2020</text><text text-anchor="middle" transform="translate(933.795971774382,20)" font-family="sans-serif" font-size="12px" fill="#333333" opacity="1">2025</text></g><g class="mark-rule role-axis-domain" pointer-events="none"><line transform="translate(0,0)" x2="950" y2="0" stroke="#666666" stroke-width="1" opacity="1"/></g></g><path class="foreground" aria-hidden="true" d="" pointer-events="none" display="none"/></g></g><g class="mark-group role-axis" role="graphics-symbol" aria-roledescription="axis" aria-label="Y-axis titled 'Percent' for a linear scale with values from 0 to 110"><g transform="translate(0.5,0.5)"><path class="background" aria-hidden="true" d="M0,0h0v0h0Z" pointer-events="none"/><g><g class="mark-text role-axis-label" pointer-events="none"><text text-anchor="end" transform="translate(-6,284)" font-family="sans-serif" font-size="12px" fill="#333333" opacity="1">0</text><text text-anchor="end" transform="translate(-6,258.5454545454545)" font-family="sans-serif" font-size="12px" fill="#333333" opacity="1">10</text><text text-anchor="end" transform="translate(-6,233.09090909090907)" font-family="sans-serif" font-size="12px" fill="#333333" opacity="1">20</text><text text-anchor="end" transform="translate(-6,207.63636363636365)" font-family="sans-serif" font-size="12px" fill="#333333" opacity="1">30</text><text text-anchor="end" transform="translate(-6,182.1818181818182)" font-family="sans-serif" font-size="12px" fill="#333333" opacity="1">40</text><text text-anchor="end" transform="translate(-6,156.72727272727272)" font-family="sans-serif" font-size="12px" fill="#333333" opacity="1">50</text><text text-anchor="end" transform="translate(-6,131.27272727272728)" font-family="sans-serif" font-size="12px" fill="#333333" opacity="1">60</text><text text-anchor="end" transform="translate(-6,105.81818181818183)" font-family="sans-serif" font-size="12px" fill="#333333" opacity="1">70</text><text text-anchor="end" transform="translate(-6,80.36363636363636)" font-family="sans-serif" font-size="12px" fill="#333333" opacity="1">80</text><text text-anchor="end" transform="translate(-6,54.90909090909089)" font-family="sans-serif" font-size="12px" fill="#333333" opacity="1">90</text><text text-anchor="end" transform="translate(-6,29.454545454545464)" font-family="sans-serif" font-size="12px" fill="#333333" opacity="1">100</text><text text-anchor="end" transform="translate(-6,4)" font-family="sans-serif" font-size="12px" fill="#333333" opacity="1">110</text></g><g class="mark-text role-axis-title" pointer-events="none"><text text-anchor="middle" transform="translate(-29.979965209960938,140) rotate(-90) translate(0,-3)" font-family="sans-serif" font-size="13px" font-weight="normal" fill="#333333" opacity="1">Percent</text></g></g><path class="foreground" aria-hidden="true" d="" pointer-events="none" display="none"/></g></g><g class="mark-rect role-mark layer_0_marks" role="graphics-object" aria-roledescription="rect mark container"><path aria-label="start: Dec 01, 1969; end: Nov 01, 1970" role="graphics-symbol" aria-roledescription="rect mark" d="M40.57666246086266,0h14.872190289265852v280h-14.872190289265852Z" fill="#e2e6eb"/><path aria-label="start: Nov 01, 1973; end: Mar 01, 1975" role="graphics-symbol" aria-roledescription="rect mark" d="M104.10533202486099,0h21.531379971026666v280h-21.531379971026666Z" fill="#e2e6eb"/><path aria-label="start: Jan 01, 1980; end: Jul 01, 1980" role="graphics-symbol" aria-roledescription="rect mark" d="M204.08196644703025,0h8.079816813869769v280h-8.079816813869769Z" fill="#e2e6eb"/><path aria-label="start: Jul 01, 1981; end: Nov 01, 1982" role="graphics-symbol" aria-roledescription="rect mark" d="M228.36581148651806,0h21.664563764661892v280h-21.664563764661892Z" fill="#e2e6eb"/><path aria-label="start: Jul 01, 1990; end: Mar 01, 1991" role="graphics-symbol" aria-roledescription="rect mark" d="M374.290854712837,0h10.787887284452552v280h-10.787887284452552Z" fill="#e2e6eb"/><path aria-label="start: Mar 01, 2001; end: Nov 01, 2001" role="graphics-symbol" aria-roledescription="rect mark" d="M547.252208047105,0h10.876676480209312v280h-10.876676480209312Z" fill="#e2e6eb"/><path aria-label="start: Dec 01, 2007; end: Jun 01, 2009" role="graphics-symbol" aria-roledescription="rect mark" d="M656.729286415253,0h24.328239637366323v280h-24.328239637366323Z" fill="#e2e6eb"/><path aria-label="start: Feb 01, 2020; end: Apr 01, 2020" role="graphics-symbol" aria-roledescription="rect mark" d="M854.0632739847657,0h2.663675872704175v280h-2.663675872704175Z" fill="#e2e6eb"/></g><g class="mark-group role-scope layer_1_pathgroup" role="graphics-object" aria-roledescription="group mark container"><g transform="translate(0,0)"><path class="background" aria-hidden="true" d="M0,0h950v280h-950Z"/><g><g class="mark-line role-mark layer_1_marks" clip-path="url(#clip2)" role="graphics-object" aria-roledescription="line mark container"><path aria-label="date: 1967; rate: 0.86; SeriesName: Smoothed U.S. Recession Probabilities" role="graphics-symbol" aria-roledescription="line mark" d="M0,277.811L1.332,278.524L2.708,279.593L4.084,278.88L5.416,279.491L6.792,279.745L8.124,279.695L9.5,276.08L10.877,279.389L12.164,279.287L13.54,279.542L14.872,279.695L16.248,279.593L17.58,279.542L18.956,279.287L20.333,279.389L21.665,279.44L23.041,279.593L24.373,279.44L25.749,279.389L27.125,279.542L28.368,279.644L29.744,278.727L31.076,279.033L32.452,279.287L33.784,278.829L35.161,277.709L36.537,264.524L37.869,253.273L39.245,169.833L40.577,159.244L41.953,133.178L43.329,161.025L44.572,162.349L45.948,159.04L47.28,168.204L48.656,174.975L49.988,172.124L51.365,132.924L52.741,91.331L54.073,75.091L55.449,200.327L56.781,279.389L58.157,279.084L59.533,276.895L60.776,278.727L62.152,279.135L63.484,279.185L64.861,278.524L66.192,277.709L67.569,278.727L68.945,279.338L70.277,279.44L71.653,279.44L72.985,279.491L74.361,279.389L75.737,279.236L77.025,279.287L78.401,279.338L79.733,279.185L81.109,279.135L82.441,278.676L83.817,279.236L85.193,279.338L86.525,279.44L87.901,279.44L89.233,279.389L90.609,279.236L91.986,279.338L93.229,277.607L94.605,277.964L95.937,278.778L97.313,278.829L98.645,278.931L100.021,278.676L101.397,279.033L102.729,278.982L104.105,274.095L105.437,180.982L106.813,169.578L108.19,180.371L109.433,185.869L110.809,187.804L112.141,191.367L113.517,164.385L114.849,139.033L116.225,69.236L117.601,59.513L118.933,40.167L120.309,28L121.641,28.051L123.017,28.764L124.394,29.171L125.637,44.138L127.013,239.476L128.345,270.938L129.721,277.455L131.053,278.982L132.429,279.338L133.805,279.287L135.137,279.389L136.513,279.44L137.845,279.542L139.221,279.644L140.598,279.542L141.885,279.338L143.261,279.542L144.593,279.542L145.969,279.644L147.301,279.593L148.678,279.389L150.054,279.236L151.386,279.033L152.762,279.542L154.094,279.593L155.47,278.269L156.846,279.644L158.089,279.695L159.465,279.644L160.797,279.644L162.173,279.542L163.505,279.491L164.882,279.542L166.258,279.644L167.59,279.695L168.966,279.185L170.298,276.335L171.674,242.175L173.05,279.542L174.293,279.745L175.669,279.644L177.001,278.982L178.377,279.185L179.709,278.88L181.086,279.389L182.462,279.44L183.794,279.287L185.17,278.931L186.502,278.269L187.878,273.382L189.254,275.673L190.497,273.585L191.873,202.618L193.205,272.313L194.582,270.836L195.913,267.68L197.29,266.865L198.666,268.545L199.998,269.309L201.374,265.847L202.706,261.673L204.082,251.898L205.458,162.705L206.746,56.356L208.122,29.324L209.454,29.578L210.83,62.567L212.162,199.462L213.538,277.964L214.914,279.338L216.246,279.389L217.622,279.338L218.954,276.895L220.33,268.647L221.707,270.327L222.95,273.382L224.326,272.822L225.658,273.891L227.034,273.178L228.366,265.898L229.742,159.295L231.118,74.684L232.45,46.531L233.826,40.218L235.158,40.982L236.534,48.262L237.911,246.451L239.154,133.484L240.53,105.993L241.862,98.509L243.238,91.84L244.57,91.484L245.946,96.625L247.322,107.113L248.654,115.92L250.03,194.778L251.362,245.382L252.738,277.353L254.115,275.062L255.358,278.931L256.734,279.491L258.066,279.542L259.442,279.593L260.774,279.593L262.15,279.033L263.526,279.593L264.858,279.491L266.234,279.491L267.566,279.644L268.942,279.644L270.319,279.44L271.606,279.593L272.982,279.593L274.314,279.695L275.69,279.695L277.022,279.338L278.399,279.236L279.775,279.084L281.107,279.135L282.483,279.491L283.815,279.084L285.191,279.287L286.567,279.287L287.81,279.44L289.186,278.778L290.518,279.185L291.894,278.575L293.226,278.422L294.603,279.287L295.979,279.185L297.311,278.676L298.687,279.236L300.019,279.389L301.395,279.236L302.771,277.607L304.014,277.862L305.39,279.135L306.722,278.778L308.099,278.625L309.43,279.389L310.807,279.389L312.183,279.389L313.515,279.236L314.891,279.236L316.223,279.491L317.599,277.251L318.975,279.491L320.218,279.44L321.594,279.287L322.926,279.389L324.303,279.44L325.634,279.593L327.011,279.644L328.387,279.491L329.719,279.542L331.095,279.389L332.427,279.287L333.803,278.218L335.179,279.44L336.467,279.338L337.843,279.287L339.175,279.287L340.551,279.389L341.883,279.389L343.259,279.338L344.635,279.287L345.967,279.44L347.343,279.287L348.675,279.389L350.051,279.135L351.428,276.335L352.671,276.691L354.047,275.927L355.379,274.095L356.755,274.807L358.087,274.349L359.463,277.913L360.839,277.455L362.171,277.251L363.547,278.218L364.879,278.422L366.255,278.167L367.632,278.167L368.875,277.556L370.251,275.316L371.583,274.044L372.959,270.48L374.291,254.189L375.667,230.567L377.043,186.989L378.375,129.716L379.751,117.04L381.083,122.487L382.459,130.327L383.836,152.167L385.079,196.305L386.455,268.902L387.787,276.945L389.163,278.116L390.495,278.065L391.871,278.371L393.247,278.778L394.579,277.658L395.955,276.945L397.287,277.149L398.663,278.269L400.04,278.931L401.327,279.084L402.703,279.033L404.035,278.829L405.411,278.931L406.743,279.033L408.12,277.76L409.496,278.575L410.828,278.829L412.204,279.135L413.536,279.287L414.912,279.135L416.288,278.931L417.531,277.913L418.907,279.338L420.239,279.033L421.615,279.185L422.947,279.389L424.324,279.287L425.7,279.542L427.032,279.593L428.408,279.695L429.74,279.644L431.116,279.338L432.492,279.644L433.735,279.745L435.111,279.644L436.443,279.44L437.82,279.593L439.151,279.593L440.528,279.745L441.904,279.644L443.236,279.644L444.612,279.644L445.944,279.593L447.32,279.338L448.696,278.88L449.939,279.084L451.315,278.778L452.647,279.084L454.024,279.287L455.355,279.033L456.732,279.236L458.108,279.185L459.44,278.778L460.816,279.135L462.148,279.135L463.524,278.778L464.9,279.593L466.188,279.44L467.564,279.695L468.896,279.745L470.272,279.695L471.604,279.644L472.98,279.644L474.356,279.695L475.688,279.695L477.064,279.745L478.396,279.796L479.772,279.847L481.149,279.796L482.392,279.796L483.768,279.644L485.1,279.644L486.476,279.644L487.808,279.644L489.184,279.796L490.56,279.796L491.892,279.847L493.268,279.796L494.6,279.796L495.976,279.745L497.353,279.796L498.596,279.593L499.972,279.644L501.304,279.644L502.68,278.218L504.012,278.88L505.388,279.491L506.764,279.44L508.096,279.644L509.472,279.491L510.804,279.644L512.18,279.542L513.557,279.644L514.8,279.236L516.176,279.389L517.508,279.542L518.884,279.542L520.216,279.491L521.592,279.389L522.968,279.135L524.3,279.44L525.676,279.287L527.008,279.287L528.385,278.778L529.761,278.422L531.048,278.931L532.424,278.625L533.756,278.218L535.132,277.2L536.464,276.385L537.841,276.029L539.217,275.418L540.549,267.425L541.925,263.2L543.257,251.236L544.633,234.793L546.009,221.964L547.252,210.407L548.628,199.767L549.96,202.262L551.337,200.429L552.668,204.044L554.045,209.898L555.421,211.375L556.753,229.193L558.129,241.004L559.461,263.556L560.837,272.873L562.213,275.215L563.456,277.047L564.832,277.862L566.164,278.116L567.541,278.065L568.872,276.895L570.249,277.302L571.625,277.2L572.957,277.404L574.333,277.607L575.665,276.335L577.041,277.505L578.417,276.691L579.66,276.691L581.036,277.302L582.368,278.422L583.745,279.084L585.076,278.982L586.453,278.931L587.829,279.135L589.161,279.185L590.537,279.135L591.869,278.625L593.245,279.033L594.621,279.236L595.909,279.236L597.285,279.185L598.617,279.287L599.993,276.844L601.325,279.084L602.701,279.185L604.077,279.389L605.409,279.338L606.785,279.185L608.117,279.287L609.493,279.236L610.87,279.185L612.113,279.084L613.489,279.338L614.821,279.135L616.197,278.931L617.529,276.284L618.905,271.855L620.281,248.233L621.613,278.727L622.989,279.084L624.321,278.982L625.697,278.982L627.074,279.185L628.317,279.185L629.693,278.931L631.025,279.033L632.401,279.185L633.733,279.033L635.109,279.185L636.485,279.084L637.817,278.829L639.193,279.135L640.525,279.236L641.901,278.88L643.278,279.287L644.521,279.185L645.897,279.033L647.229,278.32L648.605,277.556L649.937,277.098L651.313,276.996L652.689,276.64L654.021,274.247L655.397,271.396L656.729,256.836L658.106,222.167L659.482,160.771L660.769,118.924L662.145,88.276L663.477,69.644L664.853,56.967L666.185,37.52L667.562,28.713L668.938,27.695L670.27,49.84L671.646,27.898L672.978,27.542L674.354,27.542L675.73,28.102L676.973,28.458L678.349,34.72L679.681,56.204L681.058,120.604L682.389,271.091L683.766,276.996L685.142,278.065L686.474,278.676L687.85,279.084L689.182,279.236L690.558,279.338L691.934,279.44L693.177,279.542L694.553,279.389L695.885,279.542L697.262,278.829L698.593,279.033L699.97,279.287L701.346,279.033L702.678,279.084L704.054,279.287L705.386,279.236L706.762,279.135L708.138,278.676L709.381,279.185L710.758,278.575L712.089,279.084L713.466,279.338L714.797,279.389L716.174,279.338L717.55,279.236L718.882,279.287L720.258,279.084L721.59,279.338L722.966,279.44L724.342,279.135L725.63,278.625L727.006,278.931L728.338,278.625L729.714,278.575L731.046,278.676L732.422,278.625L733.798,279.033L735.13,279.287L736.506,279.084L737.838,278.88L739.214,279.135L740.591,279.135L741.834,279.033L743.21,278.88L744.542,279.135L745.918,278.88L747.25,278.625L748.626,279.287L750.002,279.135L751.334,279.135L752.71,279.185L754.042,278.982L755.418,278.778L756.795,279.185L758.038,279.389L759.414,279.338L760.746,279.236L762.122,279.287L763.454,278.88L764.83,278.829L766.206,278.829L767.538,278.676L768.914,278.625L770.246,277.505L771.623,273.585L772.999,272.007L774.242,272.364L775.618,273.942L776.95,274.095L778.326,275.367L779.658,276.589L781.034,276.335L782.41,275.673L783.742,274.553L785.118,273.433L786.45,274.502L787.827,275.927L789.203,276.385L790.49,276.589L791.866,277.2L793.198,277.302L794.575,278.473L795.906,278.982L797.283,278.625L798.659,278.422L799.991,278.524L801.367,278.524L802.699,278.829L804.075,278.931L805.451,278.524L806.694,279.033L808.07,279.185L809.402,279.287L810.779,279.135L812.11,278.931L813.487,279.135L814.863,279.338L816.195,279.491L817.571,279.542L818.903,279.287L820.279,278.778L821.655,279.287L822.898,279.338L824.274,279.44L825.606,279.084L826.983,279.338L828.314,279.084L829.691,279.135L831.067,278.524L832.399,278.575L833.775,278.625L835.107,278.218L836.483,274.96L837.859,274.145L839.102,275.418L840.479,275.418L841.81,276.233L843.187,276.793L844.518,277.047L845.895,277.658L847.271,274.705L848.603,273.993L849.979,277.505L851.311,277.098L852.687,277.913L854.063,279.236L855.351,25.455L856.727,25.455L858.059,279.644L859.435,279.695L860.767,279.745L862.143,279.796L863.519,279.593L864.851,279.593L866.227,279.084L867.559,279.644L868.935,279.593L870.312,279.644L871.555,279.695L872.931,278.931L874.263,278.982L875.639,279.287L876.971,279.185L878.347,274.807L879.723,274.655L881.055,279.491L882.431,279.287L883.763,277.811L885.139,277.709L886.516,279.135L887.759,278.524L889.135,277.709L890.467,276.844L891.843,277.455L893.175,278.982L894.551,278.269L895.927,278.422L897.259,277.404L898.635,276.029L899.967,275.622L901.344,278.982L902.72,278.931L903.963,278.625L905.339,278.473L906.671,278.167L908.047,277.913L909.379,278.727L910.755,278.931L912.131,278.727L913.463,278.371L914.839,278.473L916.171,277.302L917.548,272.211L918.924,278.625L920.211,278.524L921.587,278.371L922.919,279.033L924.296,278.167L925.627,277.658L927.004,278.422L928.38,278.015L929.712,277.964L931.088,278.676L932.42,279.135L933.796,278.575L935.172,279.185L936.415,278.982L937.791,278.524L939.123,277.913L940.5,278.625L941.831,278.676L943.208,277.76L944.584,277.913L945.916,277.811L947.292,278.422L948.624,277.964" stroke="#005d9e" stroke-width="2.5"/></g></g><path class="foreground" aria-hidden="true" d="" display="none"/></g></g><g class="mark-text role-mark layer_2_marks" role="graphics-object" aria-roledescription="text mark container"><text text-anchor="start" transform="translate(-40,324)" font-family="sans-serif" font-size="12px" fill="#666666">Sources: Chauvet, Marcelle; Piger, Jeremy Max via FRED®</text></g><g class="mark-text role-mark layer_3_marks" role="graphics-object" aria-roledescription="text mark container"><text text-anchor="start" transform="translate(-40,339)" font-family="sans-serif" font-size="12px" fill="#3b6c9f">Shaded areas indicate U.S. recessions.</text></g><g class="mark-text role-mark layer_4_marks" role="graphics-object" aria-roledescription="text mark container"><text text-anchor="end" transform="translate(950,339)" font-family="sans-serif" font-size="12px" fill="#666666">fred.stlouisfed.org</text></g><g class="mark-group role-legend" role="graphics-symbol" aria-roledescription="legend" aria-label="Symbol legend for stroke color with 1 value: Smoothed U.S. Recession Probabilities"><g transform="translate(45,-35)"><path class="background" aria-hidden="true" d="M0,0h265v14h-265Z" pointer-events="none"/><g><g class="mark-group role-legend-entry"><g transform="translate(0,0)"><path class="background" aria-hidden="true" d="M0,0h0v0h0Z" pointer-events="none"/><g><g class="mark-group role-scope" role="graphics-object" aria-roledescription="group mark container"><g transform="translate(0,0)"><path class="background" aria-hidden="true" d="M0,0h264.583740234375v14h-264.583740234375Z" pointer-events="none" opacity="1"/><g><g class="mark-symbol role-legend-symbol" pointer-events="none"><path transform="translate(7,7)" d="M-5,0L5,0" stroke="#005d9e" stroke-width="3.5" opacity="1"/></g><g class="mark-text role-legend-label" pointer-events="none"><text text-anchor="start" transform="translate(18,11)" font-family="sans-serif" font-size="13px" font-weight="bold" fill="#000000" opacity="1">Smoothed U.S. Recession Probabilities</text></g></g><path class="foreground" aria-hidden="true" d="" pointer-events="none" display="none"/></g></g></g><path class="foreground" aria-hidden="true" d="" pointer-events="none" display="none"/></g></g></g><path class="foreground" aria-hidden="true" d="" pointer-events="none" display="none"/></g></g><g class="mark-group role-title"><g transform="translate(-42.97996520996094,-74)"><path class="background" aria-hidden="true" d="M0,0h0v0h0Z" pointer-events="none"/><g><g class="mark-text role-title-text" role="graphics-symbol" aria-roledescription="title" aria-label="Title text 'FRED®'" pointer-events="none"><text text-anchor="start" transform="translate(-40,19)" font-family="Arial, sans-serif" font-size="24px" font-weight="bolder" fill="#000000" opacity="1">FRED®</text></g></g><path class="foreground" aria-hidden="true" d="" pointer-events="none" display="none"/></g></g></g><path class="foreground" aria-hidden="true" d="" display="none"/></g></g></g><defs><clipPath id="clip2"><rect x="0" y="0" width="950" height="280"/></clipPath></defs></svg>